<svg width="16" height="16" viewBox="0 0 16 16" fill="none" xmlns="http://www.w3.org/2000/svg">
<path d="M4.16175 6.18121C4.29835 6.04697 4.39354 5.87633 4.43598 5.68957L5.32353 1.78459C5.49882 1.0134 6.45762 0.741237 7.01193 1.30533L9.81871 4.16166C9.95295 4.29827 10.1236 4.39345 10.3103 4.4359L14.2153 5.32345C14.9865 5.49873 15.2587 6.45754 14.6946 7.01185L11.8383 9.81863C11.7016 9.95286 11.6065 10.1235 11.564 10.3103L10.6765 14.2152C10.5012 14.9864 9.54238 15.2586 8.98807 14.6945L6.18129 11.8382C6.04705 11.7016 5.87641 11.6064 5.68966 11.5639L1.78467 10.6764C1.01348 10.5011 0.741319 9.54229 1.30541 8.98799L4.16175 6.18121Z" fill="#00CDFA" stroke="#00CDFA" stroke-width="1.5" stroke-linecap="round" stroke-linejoin="round"/>
</svg>
