<svg width="53" height="51" viewBox="0 0 53 51" fill="none" xmlns="http://www.w3.org/2000/svg">
<path d="M4.2507 6.30279C4.3873 6.16855 4.48249 5.99791 4.52493 5.81115L5.44012 1.78456C5.6154 1.01337 6.57421 0.74121 7.12852 1.3053L10.0227 4.25059C10.1569 4.38719 10.3276 4.48238 10.5143 4.52482L14.5409 5.44001C15.3121 5.6153 15.5843 6.5741 15.0202 7.12841L12.0749 10.0226C11.9383 10.1568 11.8431 10.3275 11.8007 10.5142L10.8855 14.5408C10.7102 15.312 9.75139 15.5842 9.19708 15.0201L6.3029 12.0748C6.16866 11.9382 5.99802 11.843 5.81126 11.8006L1.78467 10.8854C1.01348 10.7101 0.741319 9.75128 1.30541 9.19697L4.2507 6.30279Z" stroke="#705CF6" stroke-width="1.5" stroke-linecap="round" stroke-linejoin="round"/>
<path d="M45.3958 41.3657C45.5873 41.3628 45.7739 41.305 45.9335 41.1991L48.0719 39.7806C48.7309 39.3434 49.6126 39.8081 49.6246 40.5988L49.6632 43.1646C49.6661 43.3561 49.7239 43.5428 49.8298 43.7024L51.2483 45.8407C51.6855 46.4997 51.2208 47.3815 50.4301 47.3934L47.8643 47.432C47.6728 47.4349 47.4861 47.4927 47.3265 47.5986L45.1882 49.0171C44.5291 49.4543 43.6474 48.9897 43.6355 48.1989L43.5968 45.6331C43.5939 45.4416 43.5361 45.255 43.4303 45.0954L42.0117 42.957C41.5745 42.298 42.0392 41.4162 42.83 41.4043L45.3958 41.3657Z" stroke="#FF76DF" stroke-width="1.5" stroke-linecap="round" stroke-linejoin="round"/>
</svg>
