<svg width="241" height="52" viewBox="0 0 241 52" fill="none" xmlns="http://www.w3.org/2000/svg">
<path d="M233.09 14.2256H231.953V13.7706H234.793V14.2256H233.661V17.4074H233.093L233.09 14.2256Z" fill="#E5E7EB"/>
<path d="M236.839 17.4074L235.815 14.339V17.4074H235.249V13.7706H236.157L237.065 16.721L237.974 13.7706H238.882V17.4074H238.427V14.339L237.404 17.4074H236.839Z" fill="#E5E7EB"/>
<path d="M25.9747 4.72694C26.5474 4.72694 27.0966 4.95443 27.5015 5.35936C27.9065 5.76429 28.1339 6.3135 28.1339 6.88616C28.1339 7.45882 27.9065 8.00803 27.5015 8.41296C27.0966 8.81789 26.5474 9.04538 25.9747 9.04538H25.8614C25.3243 9.02865 24.8138 8.80782 24.4338 8.42785C24.0538 8.04789 23.833 7.53738 23.8163 7.00029C23.8332 6.42545 24.0322 5.87083 24.3846 5.4164C24.5845 5.19447 24.8303 5.01858 25.1048 4.90088C25.3793 4.78318 25.6761 4.72649 25.9747 4.7347M25.9747 2.00792C24.7165 2.03533 23.5173 2.54697 22.6268 3.43632C21.7363 4.32567 21.2232 5.5242 21.1942 6.7824C21.1652 8.0406 21.6225 9.26151 22.4711 10.191C23.3196 11.1204 24.4939 11.6868 25.7496 11.7722H25.9763C26.6194 11.7771 27.2571 11.6541 27.8522 11.4103C28.4474 11.1665 28.988 10.8067 29.4428 10.3519C29.8976 9.89715 30.2574 9.35646 30.5012 8.76133C30.745 8.1662 30.868 7.52851 30.8631 6.88538C30.8678 6.24226 30.7446 5.60461 30.5006 5.00955C30.2566 4.4145 29.8966 3.87393 29.4417 3.4193C28.9868 2.96467 28.446 2.60508 27.8508 2.36144C27.2556 2.1178 26.6178 1.99499 25.9747 2.00016V2.00792Z" fill="#E5E7EB"/>
<path d="M22.6804 36.1376C23.3443 36.1259 24.0039 36.2466 24.6207 36.4926C25.2375 36.7386 25.7992 37.105 26.2728 37.5704C26.7465 38.0357 27.1227 38.5908 27.3795 39.2032C27.6364 39.8156 27.7686 40.473 27.7686 41.137C27.7686 41.801 27.6364 42.4584 27.3795 43.0708C27.1227 43.6832 26.7465 44.2383 26.2728 44.7037C25.7992 45.169 25.2375 45.5354 24.6207 45.7814C24.0039 46.0274 23.3443 46.1481 22.6804 46.1364H17.3402C16.6762 46.1481 16.0166 46.0274 15.3998 45.7814C14.783 45.5354 14.2214 45.169 13.7477 44.7037C13.2741 44.2383 12.8978 43.6832 12.641 43.0708C12.3842 42.4584 12.2519 41.801 12.2519 41.137C12.2519 40.473 12.3842 39.8156 12.641 39.2032C12.8978 38.5908 13.2741 38.0357 13.7477 37.5704C14.2214 37.105 14.783 36.7386 15.3998 36.4926C16.0166 36.2466 16.6762 36.1259 17.3402 36.1376H22.6804ZM22.6804 32.8425H17.3402C15.1899 32.8721 13.1378 33.7471 11.6277 35.2782C10.1176 36.8092 9.271 38.8732 9.271 41.0236C9.271 43.1741 10.1176 45.2381 11.6277 46.7691C13.1378 48.3002 15.1899 49.1751 17.3402 49.2048H22.6804C24.8306 49.1751 26.8828 48.3002 28.3929 46.7691C29.903 45.2381 30.7496 43.1741 30.7496 41.0236C30.7496 38.8732 29.903 36.8092 28.3929 35.2782C26.8828 33.7471 24.8306 32.8721 22.6804 32.8425V32.8425Z" fill="#E5E7EB"/>
<path d="M22.6813 17.0441C23.3453 17.0324 24.0049 17.153 24.6217 17.399C25.2385 17.645 25.8001 18.0114 26.2738 18.4768C26.7474 18.9422 27.1237 19.4973 27.3805 20.1096C27.6373 20.722 27.7696 21.3794 27.7696 22.0434C27.7696 22.7075 27.6373 23.3649 27.3805 23.9772C27.1237 24.5896 26.7474 25.1447 26.2738 25.6101C25.8001 26.0755 25.2385 26.4419 24.6217 26.6878C24.0049 26.9338 23.3453 27.0545 22.6813 27.0428H10.0692C9.40525 27.0545 8.74563 26.9338 8.12883 26.6878C7.51203 26.4419 6.9504 26.0755 6.47673 25.6101C6.00307 25.1447 5.62684 24.5896 5.37002 23.9772C5.11321 23.3649 4.98094 22.7075 4.98094 22.0434C4.98094 21.3794 5.11321 20.722 5.37002 20.1096C5.62684 19.4973 6.00307 18.9422 6.47673 18.4768C6.9504 18.0114 7.51203 17.645 8.12883 17.399C8.74563 17.153 9.40525 17.0324 10.0692 17.0441H22.6813M22.6813 13.749H10.0692C7.91894 13.7786 5.8668 14.6536 4.35671 16.1846C2.84662 17.7156 2 19.7796 2 21.9301C2 24.0805 2.84662 26.1445 4.35671 27.6756C5.8668 29.2066 7.91894 30.0816 10.0692 30.1112H22.6813C24.8316 30.0816 26.8837 29.2066 28.3938 27.6756C29.9039 26.1445 30.7505 24.0805 30.7505 21.9301C30.7505 19.7796 29.9039 17.7156 28.3938 16.1846C26.8837 14.6536 24.8316 13.7786 22.6813 13.749V13.749Z" fill="#E5E7EB"/>
<path d="M73.7817 49.3182V13.6387H93.8941V17.1605H77.4185V29.5459H92.1906V32.9622H77.4185V45.8026H93.8941V49.3244L73.7817 49.3182Z" fill="#E5E7EB"/>
<path d="M132.754 49.3182V13.6387H152.867V17.1605H136.391V29.5459H151.163V32.9622H136.391V45.8026H152.867V49.3244L132.754 49.3182Z" fill="#E5E7EB"/>
<path d="M192.75 49.3182V34.5461L180.705 13.6387H184.795L194.567 30.796L204.339 13.6387H208.316L196.389 34.5461V49.3182H192.75Z" fill="#E5E7EB"/>
<path d="M125.484 49.3182V13.6387H121.962V42.728L104.35 13.6387H100.713V49.3182H104.35V20.2289L121.962 49.3182H125.484Z" fill="#E5E7EB"/>
<path d="M55.0351 33.9777H63.5571V36.8178C63.5571 43.7497 59.1253 46.2482 55.0351 46.2482C50.9449 46.2482 46.5131 43.7481 46.5131 36.8178V26.1374C46.5131 19.2055 50.9449 16.707 55.0351 16.707C57.1 16.6172 59.121 17.3203 60.6843 18.6722C62.2476 20.0242 63.2348 21.9227 63.4437 23.979H66.9656C66.7711 20.9815 65.4166 18.1776 63.1893 16.1622C60.9619 14.1468 58.0371 13.0784 55.0351 13.1836C47.7616 13.1836 42.9897 18.4105 42.9897 26.1374V36.8178C42.9897 44.5447 47.8765 49.7716 55.0351 49.7716C62.307 49.7716 67.0805 44.5447 67.0805 36.8178V30.4512H55.0351V33.9777Z" fill="#E5E7EB"/>
<path d="M160.829 38.5229C160.825 39.5578 161.031 40.5827 161.432 41.5366C161.834 42.4904 162.423 43.3536 163.165 44.0748C163.908 44.7959 164.787 45.3601 165.752 45.7338C166.718 46.1075 167.748 46.283 168.782 46.2498C173.328 46.2498 175.714 44.0914 175.714 39.9997C175.73 38.5963 175.248 37.2327 174.353 36.1511C173.459 35.0694 172.21 34.3396 170.829 34.0911L164.807 32.501C162.702 31.9853 160.844 30.7478 159.557 29.0037C158.269 27.2597 157.634 25.1196 157.762 22.9557C157.762 17.1605 161.852 13.2971 167.989 13.2971C175.034 13.2971 178.102 18.1839 178.784 23.0691H175.262C174.467 18.9789 171.846 16.8189 168.104 16.8189C164.014 16.8189 161.4 19.2056 161.4 22.9542C161.334 24.3607 161.765 25.7456 162.616 26.867C163.468 27.9884 164.686 28.775 166.059 29.0894L172.309 30.7975C174.401 31.3127 176.253 32.53 177.556 34.2464C178.859 35.9627 179.534 38.0741 179.467 40.2279C179.467 46.2498 175.377 49.9999 168.9 49.9999C160.826 49.9999 157.538 43.8647 157.423 38.7512L160.829 38.5229Z" fill="#E5E7EB"/>
<path d="M213.439 38.5229C213.436 39.5578 213.641 40.5827 214.043 41.5366C214.444 42.4904 215.033 43.3536 215.776 44.0748C216.518 44.7959 217.398 45.3601 218.363 45.7338C219.328 46.1075 220.358 46.283 221.393 46.2498C225.938 46.2498 228.325 44.0914 228.325 39.9997C228.34 38.596 227.858 37.2323 226.963 36.1506C226.068 35.0689 224.82 34.3392 223.438 34.0911L217.416 32.501C215.311 31.9853 213.453 30.7478 212.165 29.0037C210.878 27.2597 210.243 25.1196 210.371 22.9557C210.371 17.1605 214.461 13.2971 220.598 13.2971C227.643 13.2971 230.711 18.1839 231.393 23.0691H227.871C227.076 18.9789 224.455 16.8189 220.713 16.8189C216.622 16.8189 214.009 19.2056 214.009 22.9542C213.943 24.3607 214.374 25.7456 215.225 26.867C216.077 27.9884 217.295 28.775 218.668 29.0894L224.918 30.7975C227.01 31.3127 228.862 32.53 230.165 34.2464C231.468 35.9627 232.143 38.0741 232.076 40.2279C232.076 46.2498 227.986 49.9999 221.509 49.9999C213.435 49.9999 210.147 43.8647 210.032 38.7512L213.439 38.5229Z" fill="#E5E7EB"/>
</svg>
