<svg width="60" height="52" viewBox="0 0 60 52" fill="none" xmlns="http://www.w3.org/2000/svg">
<path fill-rule="evenodd" clip-rule="evenodd" d="M36.1235 2.14057L39.2004 2.22077L39.2806 2.14057C42.4374 2.28114 46.0369 2.20065 49.4151 2.22077L49.7373 2.32138C49.5358 9.13836 49.9184 15.3321 49.2745 22.1287C47.3644 33.4708 40.0849 44.4498 29.5477 50C29.266 49.96 29.105 49.6783 28.8239 49.6381C19.4928 43.9068 12.6362 34.3153 10.5849 23.8382C10.0821 21.3046 10.0821 18.3484 10.0019 15.8749H10.0422C10.1626 15.4529 9.9617 15.0105 10.0821 14.6282C9.86109 13.1001 10.1629 11.5518 10.1026 9.9027L10.1431 2.12045L10.2836 2L17.5229 2.04053L36.1235 2.14057V2.14057Z" fill="black"/>
<path fill-rule="evenodd" clip-rule="evenodd" d="M11.5504 2.40191C14.3855 2.42175 17.4018 2.50223 20.4181 2.48211C20.5994 2.58244 20.8607 2.42175 21.122 2.48211L24.5606 2.50223L40.0043 2.58244C43.3023 2.62296 46.138 2.66321 49.3357 2.68305L49.3153 11.8931C49.3153 15.6536 49.2147 19.6351 48.6921 23.4358C48.5311 23.4758 48.7119 23.7575 48.5509 23.7977C48.4503 24.441 48.31 25.0042 48.1085 25.5673C47.9891 26.2331 47.8073 26.8862 47.5655 27.518C47.5859 27.7591 47.4448 27.8799 47.3844 28.0607C47.2439 28.5836 47.0424 29.1061 46.8414 29.5891C46.057 31.6605 45.0917 33.8118 43.8453 35.6216C42.9806 37.0899 42.1361 38.4973 41.0501 39.7443C39.3811 42.0568 36.8676 44.4898 34.5352 46.2999H34.4346C33.8318 46.8829 33.0675 47.3253 32.4443 47.7476C31.8205 48.1095 31.1772 48.6119 30.4936 48.9135C30.3525 49.1552 30.0912 49.1952 29.8296 49.3159C29.6488 49.5574 29.3271 49.2961 29.0658 49.3159C28.1207 48.6726 27.1554 48.1095 26.331 47.3854C25.8685 47.2247 25.3657 46.782 25.0236 46.4805C24.9032 46.4805 24.8428 46.3198 24.702 46.2594C21.947 43.9063 19.4536 41.2925 17.3825 38.5174C17.4627 38.3162 17.2417 38.2963 17.1609 38.1957C16.5176 37.2103 15.7938 36.2252 15.331 35.1996C14.9889 34.8575 14.9691 34.3749 14.627 34.0731C14.5264 33.7112 14.3053 33.5102 14.2453 33.1282C10.2632 26.4121 10.1223 17.6042 10.444 9.27926L10.5446 2.54276C10.6047 2.2809 10.9467 2.44244 11.1678 2.40191C11.2684 2.56288 11.4294 2.38179 11.5504 2.40191V2.40191Z" fill="#E5E7EB"/>
<path fill-rule="evenodd" clip-rule="evenodd" d="M18.6888 7.10753C19.1915 6.76546 19.976 6.94684 20.398 7.20814C20.5586 7.46944 20.8202 7.54992 21.0413 7.61029C22.1074 6.20234 23.7359 7.77098 25.1234 6.88648C25.6865 6.98652 25.9478 7.40907 26.4308 7.61029C26.8933 7.63013 27.3957 7.54964 27.818 7.69049V9.54055C28.2003 9.7616 28.5418 9.661 28.9241 9.86221C29.2056 10.1235 29.2458 10.5458 29.1854 10.9077C28.8235 11.3702 28.361 11.3702 27.8381 11.4507C27.8177 13.0794 27.697 14.6078 27.8381 16.2569C28.4412 16.2569 28.8434 16.478 29.065 17.021C29.1653 17.5838 28.7833 17.8854 28.4616 18.107C28.2003 18.1469 27.7781 18.0064 27.7378 18.3683V20.7208C27.5768 21.1833 26.8933 21.0028 26.4704 21.1431C26.35 21.0229 26.1488 21.1028 26.0082 21.083C25.8475 21.3041 25.8274 20.9626 25.6463 21.083H21.8459C21.3836 21.244 20.901 21.9678 20.4181 21.4449C19.9958 20.8821 19.0509 21.0028 18.5079 21.0428L14.0239 20.9022C13.7825 20.8019 13.7422 20.5802 13.7624 20.3187V18.0064C13.4004 17.8854 12.9178 17.9457 12.6364 17.6844C12.1937 17.3225 12.5556 16.7594 12.616 16.3371C12.8376 16.0353 13.4206 16.1762 13.7624 16.0758C13.9029 14.4471 13.9432 13.0397 13.8831 11.3101C13.3602 11.2299 12.737 11.2299 12.4955 10.6866C12.4757 10.3851 12.3751 10.0833 12.5763 9.82197C12.898 9.43994 13.3803 9.43994 13.8834 9.50031L13.9837 9.35945L14.0242 7.7911C14.1248 7.36883 14.6874 7.54964 15.0295 7.46944C15.6731 7.69049 15.9548 6.98652 16.4774 6.82583C16.8191 6.64502 17.0204 7.02705 17.3823 7.00721C17.8043 7.20814 18.1662 7.06729 18.6888 7.10753V7.10753ZM37.3905 6.92644C37.7726 7.14778 38.2949 7.22798 38.4765 7.69078C38.7982 7.87187 38.7775 7.46972 39.019 7.36911C40.0644 6.42425 41.4117 7.83163 42.4977 7.00721C43.2621 6.70538 43.8252 7.71061 44.388 7.75114C44.7499 7.69106 45.2533 7.7313 45.6152 7.87215C45.7756 8.53532 45.5542 9.17893 45.8359 9.74233C46.3384 9.72193 46.8814 9.70181 46.9823 10.2649C47.1229 10.4457 47.0421 10.6674 47.0625 10.9488C46.9823 11.0089 46.7403 10.9686 46.8012 11.1698L46.8814 11.2305C46.5799 11.6125 45.635 11.1902 45.6549 11.8936C45.7756 13.2211 45.5746 14.8096 45.6954 16.2575C46.1171 16.5188 46.7406 16.4182 46.9625 16.9609C47.0024 17.3228 47.0826 17.8658 46.6604 18.0466C46.3588 18.228 45.7555 18.0466 45.6152 18.4695V20.9628L45.3533 21.1839C43.5234 21.4049 41.3916 21.0833 39.4616 21.1839C39.2601 21.4653 39.0388 21.4857 38.818 21.6266C38.315 21.6665 37.9534 21.3851 37.5716 21.1434C35.9021 21.1235 34.4746 21.2037 32.8456 21.0833C32.5843 21.2443 32.2828 21.0634 32.0011 21.043L31.82 20.7211V18.1472C31.2974 18.067 30.694 18.1274 30.5132 17.5039C30.433 17.1618 30.5132 16.9207 30.6339 16.6191C30.9151 16.2572 31.3778 16.2368 31.8202 16.2572L31.901 16.1161V11.5312C31.5589 11.29 31.1367 11.5312 30.815 11.2699C30.5736 11.029 30.4735 10.8278 30.4131 10.5061C30.5135 10.2244 30.6135 9.90274 30.9556 9.74177C31.2169 9.50031 31.74 9.80185 31.941 9.50031C31.901 8.8771 31.9815 8.39447 32.0013 7.83134C32.3839 7.40907 33.1077 7.73074 33.4898 7.61029C33.8517 7.30875 34.3947 7.20814 34.7569 6.92615C35.5408 7.5298 36.5259 7.02705 37.3905 6.92644V6.92644Z" fill="black"/>
<path fill-rule="evenodd" clip-rule="evenodd" d="M38.094 7.54963C38.5965 8.17283 38.4559 9.11827 38.4766 9.90244C38.537 9.92228 38.5568 10.0031 38.637 10.0031C38.7776 9.82196 38.6569 9.62074 38.7376 9.45977C38.637 8.71584 38.6767 7.89113 39.2401 7.38837C39.8633 7.20756 40.6274 7.24781 41.231 7.5091C41.7335 7.38837 42.156 7.44874 42.6381 7.32801C42.8198 8.5747 42.6183 10.0028 42.6786 11.1687C42.7192 11.2293 42.7994 11.1891 42.8597 11.1891L42.9405 11.0885C42.8198 10.4248 43.0201 9.8418 42.9 9.19819C43.1009 8.63507 42.7792 7.93138 43.0405 7.28777C43.4226 7.48898 43.9058 7.75028 44.086 8.11247C44.086 11.9132 44.0058 15.2715 43.8851 19.1524H43.7644C43.4427 18.7302 42.7586 18.4485 42.8997 17.8652L42.9402 11.4104C42.8799 11.3098 42.7189 11.3098 42.6381 11.3501C42.5579 13.6825 42.6585 15.6935 42.5783 17.8853C42.5579 18.2473 42.2362 18.2878 41.9146 18.2473C41.5326 18.2878 41.2914 17.9658 40.9493 17.8853H39.7426C39.441 18.0667 39.0993 18.2679 38.7374 18.1872C38.6367 17.5637 38.7977 16.7996 38.5962 16.2569L38.4151 16.4377C38.3752 17.0411 38.4959 17.6646 38.2944 18.2475C37.8925 18.3481 37.6108 17.9259 37.1891 17.9661C36.344 17.624 35.6602 18.3079 34.8561 18.0667L34.7958 17.9259C34.7558 14.4669 34.8363 10.9077 34.8561 7.32829C35.218 7.32829 35.6001 7.61 35.9821 7.50939C36.3242 7.40906 36.6861 7.18744 37.0281 7.20785L37.1084 7.10724C37.3702 7.32858 37.8327 7.22797 38.094 7.54963V7.54963ZM16.6177 7.18773C16.658 9.27924 16.5775 11.0689 16.5576 13.1604C16.6979 13.201 16.5775 13.3013 16.5576 13.3617C16.5372 14.8898 16.5171 16.4182 16.4772 18.0673C16.115 18.3487 15.914 18.8518 15.5116 19.0527C15.3912 15.3123 15.5521 11.4918 15.5725 7.73129C15.8939 7.46943 16.2354 7.16789 16.6177 7.18773V7.18773ZM20.7801 8.01215C20.8005 8.59567 20.7602 9.29936 20.8206 9.782L20.9011 9.8622C21.2426 9.25884 20.9813 8.65575 21.1221 8.01215C21.263 7.63012 21.645 7.40906 22.0268 7.24837C23.0326 7.10752 23.8771 7.7106 24.8826 7.28833C25.0436 8.15328 24.8424 8.93746 24.9226 9.78228L24.7619 17.3228C24.8424 17.7249 24.5406 17.9664 24.1988 18.0066C23.2536 17.9063 22.1274 17.3429 21.2633 18.067C20.941 18.1673 20.9617 17.8057 20.9617 17.6045C20.9413 17.0612 21.0221 16.5789 20.9014 16.1163C20.8008 16.0761 20.7002 16.1764 20.7203 16.2575L20.68 17.9667C20.2782 17.9868 19.8757 17.7658 19.4537 17.7054C18.8702 17.7054 18.4281 18.027 17.865 18.0069C17.5833 18.1475 17.2214 18.027 16.9601 17.9667L16.7994 17.7856C16.739 14.2666 16.9201 10.707 16.9201 7.20841C17.1613 7.12764 17.4631 7.3691 17.7448 7.42947C18.769 7.36882 20.2374 6.8057 20.7801 8.01215V8.01215ZM26.1894 7.79109C26.1089 11.511 26.1894 15.2313 26.1089 19.1323C26.1089 19.193 25.9885 19.1527 25.9281 19.1527C25.586 18.7101 25.2241 18.2881 25.0229 17.785C25.1439 14.0648 25.0634 10.8275 25.2442 7.20785C25.6266 7.24837 25.8881 7.6304 26.1894 7.79109V7.79109ZM34.5747 7.32858C34.7357 9.35944 34.4342 11.5312 34.5348 13.6227L34.4744 18.2475C34.0924 18.5091 33.8512 18.9515 33.4488 19.2329L33.3884 19.0926L33.4488 10.6869L33.529 7.83162C33.8713 7.67064 34.2134 7.42918 34.5747 7.32858V7.32858Z" fill="#E5E7EB"/>
<path fill-rule="evenodd" clip-rule="evenodd" d="M15.25 7.79102C15.4311 8.37398 15.2302 9.07795 15.2903 9.60055L15.1494 19.5146L15.4311 19.7759L19.6941 19.8161L19.7746 20.6405C17.9245 20.7207 16.0339 20.6805 14.1241 20.6003C13.9829 19.7555 14.1037 18.71 14.0235 17.7847C13.6814 17.4026 12.9573 17.8051 12.7161 17.3222C12.6359 17.0606 12.6762 16.759 12.8167 16.5581C13.1588 16.1962 13.8826 16.6788 14.1241 16.156C14.0033 14.4467 14.2445 12.6568 14.0634 11.0076C13.6412 10.9274 13.0582 11.0884 12.7969 10.7262C12.656 10.5253 12.6362 10.1829 12.7566 9.96189C13.0783 9.49937 13.9231 9.98173 14.2448 9.55974L14.2646 7.93102C14.5262 7.71053 14.9287 7.75078 15.25 7.79102V7.79102ZM27.5973 9.68132C28.04 10.0832 29.0654 9.72128 28.9648 10.5859C28.9041 11.3299 27.9794 10.9076 27.5973 11.31C27.5171 13.0396 27.5973 14.5876 27.5171 16.4178C27.758 16.7194 28.3013 16.5383 28.6428 16.7395C28.8242 16.9206 28.9648 17.2828 28.7434 17.5038C28.4821 17.906 28.04 17.7453 27.5973 17.7852C27.3961 18.791 27.537 19.8164 27.376 20.7615C25.6266 20.721 23.6963 20.8219 21.9868 20.6811L22.0268 19.8563H26.1492C26.3909 19.7963 26.2699 19.5347 26.3909 19.4142L26.4311 9.60083L26.5519 7.9724C26.8735 7.7913 27.2156 7.87179 27.5973 7.91175V9.68132V9.68132ZM33.268 8.15293C33.1472 11.8732 33.1878 15.8547 33.0265 19.635C33.0067 19.8164 33.2076 19.8966 33.3482 19.917H37.3906L37.5114 20.7814C35.8021 20.882 33.9716 20.7615 32.2624 20.7615C32.0011 20.6008 32.1621 20.2183 32.1224 20.0377L32.0819 17.8858C31.5993 17.8456 30.9355 17.866 30.6944 17.3431C30.6745 17.0416 30.7547 16.7199 31.0563 16.6193C31.4785 16.5187 31.9408 16.7398 32.1423 16.2977V11.2298C31.6392 11.089 30.8148 11.31 30.6743 10.6463C30.6743 10.385 30.7545 10.1637 30.9151 9.96246C31.2977 9.98229 31.6392 9.78165 32.0011 9.86213C32.2828 9.21881 32.0417 8.49499 32.3234 7.87151C32.685 7.9724 33.2476 7.63033 33.268 8.15293V8.15293ZM45.5345 9.90266C45.9165 10.1237 46.7007 9.84258 46.8413 10.4054C46.9016 10.667 46.7809 10.8881 46.6602 11.0893C46.3187 11.3506 45.7757 11.1695 45.3931 11.3707C45.5747 12.8387 45.3732 14.1055 45.4336 15.5738C45.4138 15.9559 45.2732 16.5187 45.6955 16.6995C46.0171 16.5989 46.3388 16.7199 46.6004 16.8806C46.7608 17.0818 46.7608 17.4035 46.7007 17.645C46.3785 18.1675 45.4741 17.6245 45.3934 18.3285L45.3534 20.5807L45.0717 20.8624H39.723L39.7834 19.9978C41.1911 19.9176 42.6588 19.9978 44.0665 19.9176L44.2476 19.7362C44.2881 15.9156 44.2881 11.8936 44.3881 8.01264C44.7702 7.97268 45.1122 7.93244 45.4741 8.05288L45.5345 9.90266V9.90266Z" fill="#E5E7EB"/>
<path fill-rule="evenodd" clip-rule="evenodd" d="M18.6084 10.7271C18.5483 10.9683 18.2264 11.1091 18.4072 11.4509C18.649 12.3762 18.7493 13.3815 19.1514 14.2461L19.3124 14.1654C19.5737 13.1397 19.9158 12.1342 20.0966 11.0485C20.0365 10.8274 19.6743 11.0887 19.7347 10.807C19.9761 10.7671 20.5393 10.6866 20.6795 10.8677C20.1771 11.0287 20.3378 11.6519 20.0963 12.0339C19.7948 13.0394 19.7143 14.1455 19.1917 15.0705C18.6081 13.8839 18.5883 12.4159 18.1057 11.1689C18.1859 10.7064 17.4819 11.1689 17.7035 10.6866L18.6084 10.7271V10.7271ZM23.3945 10.7674C23.5552 11.0488 23.6354 11.4509 23.4952 11.7726C23.2132 11.6315 23.6354 10.9079 23.1332 11.0488L22.9924 10.9884L21.9469 11.0082C21.8259 11.511 21.8664 12.1543 21.9067 12.6171C22.2082 12.7778 22.55 12.5772 22.8515 12.6372C22.8918 12.758 23.0528 12.7175 22.9924 12.8583C22.711 13.2202 21.8866 12.597 21.9067 13.2202C21.9668 13.7026 21.7655 14.1251 21.9469 14.6078C22.4094 14.8087 22.9726 14.648 23.475 14.6078C23.475 14.3663 23.4351 14.1251 23.5756 13.944C23.8772 14.1251 23.5958 14.527 23.676 14.8492L23.5756 14.9697C22.7912 14.9493 22.1079 14.9895 21.3237 14.9294C21.2027 14.869 21.2429 14.7687 21.3033 14.6681C21.5448 14.7084 21.6454 14.5071 21.6859 14.3062L21.6655 11.0485C21.5451 10.8473 21.0823 11.0287 21.324 10.6866C21.9265 10.8277 22.711 10.7469 23.3945 10.7674V10.7674ZM38.6572 11.5311C38.8992 11.9333 38.6978 12.4159 38.5569 12.7985C38.4158 13.0796 37.7124 13.0598 38.0941 13.5223C38.3956 13.9647 38.3149 14.8498 39.0594 14.93C39.1396 14.8498 39.2203 14.7288 39.3609 14.7891C39.4816 15.0306 39.0996 15.0907 38.9585 15.1714C37.7923 14.9101 38.3956 12.9793 36.8871 13.1805C36.7267 13.1205 36.6258 13.3013 36.6054 13.4022V14.6687C36.706 14.8897 37.2292 14.6687 37.0282 14.9903L36.9673 15.0711C36.6663 14.9903 36.0828 15.2519 35.9422 14.8501L36.3441 14.669C36.4852 13.5022 36.4045 12.296 36.4249 11.1698C36.3242 11.0091 36.1032 11.0695 35.9822 11.0493V10.8283C36.9477 11.0082 38.1148 10.5259 38.6572 11.5311V11.5311ZM41.3515 10.9079C41.4927 11.2095 41.0704 11.1293 40.9097 11.1896L40.8692 14.6684C40.9295 14.8291 41.4521 14.7086 41.1908 14.9901C40.9097 15.1712 40.5875 14.9702 40.2658 15.0303C40.2055 14.9702 40.0847 14.8895 40.1856 14.8093C40.2658 14.6885 40.4265 14.769 40.5475 14.7492C40.7079 13.5019 40.6478 12.3964 40.6478 11.1695C40.5271 11.0292 40.1454 11.2905 40.1856 10.9484C40.5274 10.8277 41.0302 10.868 41.3515 10.9079V10.9079Z" fill="black"/>
<path fill-rule="evenodd" clip-rule="evenodd" d="M38.4155 11.5917C38.456 11.9536 38.5567 12.3357 38.2948 12.6372C37.8731 12.9991 37.2094 12.8985 36.6664 12.8583C36.6258 12.3155 36.5856 11.6314 36.7063 11.1689C37.2493 11.2497 38.1344 10.9079 38.4155 11.5917V11.5917ZM20.2171 18.288C20.0158 18.67 19.9158 19.1124 19.6942 19.4545L15.8733 19.374C15.813 18.992 16.2959 18.7304 16.517 18.4084C16.8386 18.2072 17.2609 18.4288 17.6432 18.4288C18.4679 18.3282 19.4128 17.8453 20.2171 18.288ZM24.6212 18.2475H24.8422C25.1837 18.6496 25.5456 18.9917 25.7069 19.4941C24.3797 19.5344 23.1528 19.4139 21.9061 19.4542C22.0668 18.931 21.3025 18.6298 21.7253 18.1871C22.7909 17.6645 23.5955 18.7103 24.6212 18.2475V18.2475ZM37.732 18.509C37.7524 18.9112 37.531 19.213 37.5112 19.5948L33.7504 19.5551V19.4139L34.7157 18.4691C35.7813 18.7505 36.8069 17.7453 37.732 18.509V18.509ZM42.759 18.5493C43.1416 18.8709 43.5035 19.1728 43.7044 19.5948C42.3769 19.7356 41.1101 19.6152 39.7427 19.5948C39.6421 19.1929 39.3607 18.8511 39.3808 18.4084C40.5875 17.7249 41.5528 18.9313 42.759 18.5493V18.5493ZM21.504 18.9517C21.7653 19.6957 21.8458 20.6006 21.2628 21.1835C20.9009 21.2643 20.4781 21.2439 20.2372 20.9421C19.9356 20.2182 20.0158 19.1725 20.4988 18.5895C20.8607 18.3282 21.343 18.5493 21.504 18.9517ZM39.2005 18.9716C39.4414 19.5948 39.5619 20.4597 39.2405 21.0829C38.9786 21.2439 38.6371 21.3646 38.2951 21.2643C37.9935 21.2036 37.8527 20.9222 37.7926 20.6408C37.7728 19.917 37.6719 18.9716 38.3761 18.5895C38.6972 18.4889 39.1195 18.6096 39.2005 18.9716Z" fill="#E5E7EB"/>
<path fill-rule="evenodd" clip-rule="evenodd" d="M26.0086 26.7337C26.9739 26.7539 28.2205 26.1706 29.0654 26.7944C29.3468 26.9755 29.4876 27.3975 29.8291 27.4578C30.3121 26.7541 31.056 26.4724 31.9008 26.5127C33.0268 26.7541 34.3741 27.1163 35.3394 26.3922C35.9827 26.6535 36.3848 27.1962 37.0083 27.3371C37.451 27.2969 37.9736 27.2368 38.3358 27.5185C38.3556 27.9606 38.4364 28.3225 38.416 28.8252C38.7986 29.0868 39.3614 28.8856 39.7233 29.2277C39.8879 29.473 39.9848 29.7574 40.0045 30.0521C39.8639 30.3936 39.5827 30.575 39.2407 30.7357C39.0193 30.796 38.5166 30.6147 38.416 30.9165L38.376 36.2456C38.5571 36.5471 39.0794 36.2456 39.2809 36.4871C39.6423 36.4465 39.8438 36.8291 40.0045 37.0298C39.9645 37.3313 40.1051 37.6935 39.9041 37.9148C39.6423 38.5987 38.7578 38.0554 38.3757 38.5179V40.6296C38.2352 40.9509 37.7922 41.0317 37.4708 40.9912L30.9554 40.9507C30.6133 41.2326 30.5734 41.7555 30.0907 41.9567C29.7489 42.0772 29.4471 41.9162 29.1858 41.7754C28.8843 41.5741 28.8843 41.1317 28.6425 40.9507C26.2498 40.9311 24.0375 41.011 21.7255 40.8707C21.484 40.7299 21.1822 41.0314 21.0017 40.7299C20.9209 40.368 20.7197 39.8856 20.9011 39.5634C20.8807 39.4427 20.7602 39.2621 20.9011 39.1814C20.7801 38.8597 21.0618 38.4173 20.72 38.196C20.2575 38.3164 19.8352 38.1761 19.4931 37.9146C19.4132 37.492 19.0709 36.9493 19.5538 36.6075C19.855 36.2456 20.3779 36.4063 20.7801 36.306C21.0218 36.2258 20.7398 35.9642 20.9011 35.8837V30.7155C20.6596 30.4542 20.4785 30.736 20.2172 30.5951C19.8755 30.5347 19.5736 30.374 19.4535 30.0119C19.3529 29.6902 19.4733 29.4689 19.5538 29.1874C19.8953 28.7654 20.4989 28.946 20.941 28.7448C21.0218 28.202 20.6999 27.5383 21.223 27.2368C22.2487 27.5185 23.0328 26.8148 23.7567 26.3718C24.5207 26.4724 25.1839 26.8746 26.0086 26.7337V26.7337Z" fill="black"/>
<path fill-rule="evenodd" clip-rule="evenodd" d="M34.6155 27.0155C34.7966 26.9752 34.957 26.8146 35.1985 26.8746L35.2594 27.0155L35.2994 34.2953C35.0579 35.3203 35.3192 36.4466 35.1988 37.6131C33.7109 38.6387 32.2834 36.9493 30.7757 37.7335C30.494 37.9347 30.2321 38.1359 29.9107 38.2366L29.8702 36.0646C29.8101 36.0243 29.79 35.9039 29.6894 35.9435C29.4077 36.688 29.7897 37.5125 29.5083 38.1558C28.744 37.3917 27.3564 37.3515 26.3914 37.7536C25.6673 37.8945 24.6618 38.1558 24.0182 37.6933L24.0383 28.3628L24.1188 26.8344C24.4606 26.6332 24.6216 27.0557 24.9435 27.0155C26.572 27.5783 28.5428 25.7886 29.5486 27.6991C29.6489 28.1814 29.4885 28.7652 29.6894 29.1872C30.0913 28.9457 29.8098 28.3024 29.9507 27.8804C30.3129 27.2567 30.755 26.8548 31.4593 26.7539C32.5044 26.9551 33.5097 27.1563 34.6155 27.0155V27.0155ZM23.6762 37.5125C23.6563 38.0957 23.113 38.6585 22.7112 39.0006H22.5703L22.6709 27.4179C23.0124 27.1963 23.3142 26.8945 23.7164 26.7944L23.6762 37.5125V37.5125Z" fill="#E5E7EB"/>
<path fill-rule="evenodd" clip-rule="evenodd" d="M29.689 30.454C30.1918 31.6805 30.4329 33.0278 30.8549 34.2952C30.9961 34.4157 31.2168 34.3151 31.3177 34.5364C31.0763 34.7977 30.654 34.4959 30.3729 34.6574C30.3125 34.5968 30.2317 34.4962 30.3125 34.4358C30.7144 34.3958 30.5333 34.0339 30.5134 33.7721C30.3927 33.1693 29.5079 33.4711 29.0454 33.39C28.6231 33.3098 28.8039 33.8123 28.6033 33.9934C28.5027 34.2952 28.7841 34.2748 28.8847 34.476L28.7841 34.6169C28.5027 34.4355 27.8993 34.8581 27.9194 34.3958C28.1408 34.2955 28.382 34.3352 28.4222 34.0339C28.7841 32.8476 29.0256 31.6003 29.5082 30.4543H29.689V30.454V30.454Z" fill="black"/>
<path fill-rule="evenodd" clip-rule="evenodd" d="M36.7063 27.5182C36.7666 31.4192 36.6057 35.3806 36.7063 39.1811L36.4855 39.1405L35.4803 37.8337C35.6407 34.1739 35.4599 30.7552 35.5806 26.9346C36.0026 27.0154 36.3444 27.3371 36.7063 27.5182V27.5182ZM22.3085 27.4779C22.3488 31.2784 22.228 35.6822 22.268 39.463L22.4891 39.6841H28.7032C28.8639 39.9457 28.7432 40.2872 28.6828 40.549L28.5417 40.6491C26.2898 40.6491 24.2788 40.5286 22.1674 40.4683C22.0263 40.589 21.9463 40.4683 21.8055 40.4683C21.5844 40.5689 21.3631 40.4881 21.182 40.4082L21.1219 38.0551C20.6396 37.7136 19.7542 38.2158 19.5536 37.4316C19.5536 37.1505 19.513 36.8688 19.8149 36.7078L21.0015 36.6075L21.1418 36.3864C21.1219 34.2147 21.2021 32.5055 21.0814 30.4143C20.8399 30.3737 20.4984 30.3533 20.2167 30.3136C19.9756 30.2935 19.6536 30.2332 19.6335 29.9517C19.6137 29.6904 19.6533 29.4493 19.7743 29.2679C20.1363 29.1877 20.5585 29.0468 20.9006 29.1472C21.4433 28.866 21.0613 28.1618 21.2223 27.6392C21.504 27.3569 21.9064 27.5383 22.3085 27.4779V27.4779Z" fill="#E5E7EB"/>
<path fill-rule="evenodd" clip-rule="evenodd" d="M38.0943 27.6386C38.3357 28.1813 37.833 28.9664 38.5165 29.2875C38.9589 29.3076 39.562 29.1871 39.7233 29.6899C39.8239 30.0518 39.5623 30.3131 39.2809 30.414C38.8989 30.5747 38.2354 30.1927 38.094 30.7357L38.1544 30.8564C38.1144 32.7467 38.1144 34.5565 38.1144 36.4264C38.2351 36.9895 38.9187 36.527 39.2004 36.8288C39.3809 36.7078 39.5419 36.8688 39.6825 36.9691C39.8636 37.1907 39.7428 37.492 39.6825 37.7332C39.2806 38.2362 38.4763 37.7533 38.094 38.196L38.0535 40.5085L37.8327 40.6488H30.9551C30.7343 40.4482 30.8343 40.1061 30.8145 39.825C31.0358 39.5835 31.398 39.825 31.6386 39.7445H36.7062C36.8473 39.664 37.0284 39.5433 37.0077 39.3624V27.6386C37.3498 27.6585 37.6111 27.5581 37.973 27.6386H38.0943V27.6386Z" fill="#E5E7EB"/>
<path fill-rule="evenodd" clip-rule="evenodd" d="M33.6705 30.4942C33.9114 30.5344 33.811 30.8762 33.8912 30.997C33.8714 31.1778 33.9111 31.3787 33.8513 31.5394C33.5696 31.3787 33.5497 30.9162 33.2077 30.7759C32.8052 30.6951 32.3028 30.715 32.1222 31.0976C32.0415 31.3387 31.9207 31.6403 32.1222 31.8616C32.6647 32.4848 33.6705 32.344 34.0324 33.2288C34.133 33.651 34.0927 34.073 33.811 34.3952C33.5293 34.8575 32.9061 34.737 32.4841 34.6568C32.2622 34.3952 32.0214 34.9983 31.961 34.5358C31.8802 34.2141 31.8403 33.8117 31.8604 33.4903C32.1619 33.5306 32.0214 33.9529 32.1421 34.1337C32.4232 34.5163 32.886 34.4956 33.268 34.4352C33.5095 34.3748 33.8314 34.1739 33.8516 33.8925C33.9717 33.6312 33.7714 33.4096 33.751 33.1687C33.1278 32.4043 31.3984 32.4242 31.8607 31.0973C32.0616 30.7552 32.3031 30.5342 32.6854 30.4537C33.0869 30.293 33.4092 30.9972 33.6705 30.4942V30.4942ZM27.7785 30.5543C27.7581 30.8561 27.8386 31.3589 27.5569 31.5397L27.5169 30.8159C27.1148 30.8564 26.6925 30.5543 26.4309 30.9162C26.3907 32.0022 26.3505 33.2288 26.4709 34.2544C26.5517 34.3952 26.9538 34.2544 26.8328 34.5761L25.7873 34.6166C25.5459 34.1739 26.1895 34.4956 26.1895 34.1337C26.2096 33.0077 26.27 31.8817 26.1492 30.8159C25.8477 30.8159 25.3651 30.6348 25.2044 30.9567C25.1443 31.1579 25.1641 31.3787 25.0233 31.5397C24.9431 31.218 24.9833 30.6753 25.2846 30.4945C26.1297 30.6753 26.8535 30.4338 27.7785 30.5543V30.5543Z" fill="black"/>
<path fill-rule="evenodd" clip-rule="evenodd" d="M29.9099 31.7812C29.9501 32.2437 30.2718 32.5858 30.1916 33.088H29.0047C29.0855 32.4044 29.2263 31.6202 29.5882 30.997C29.7489 31.1778 29.8495 31.4998 29.9099 31.7812ZM29.3266 38.6387C29.1257 40.0662 27.6376 39.061 26.7525 39.3628L22.9316 39.2823C23.1125 38.8195 23.5551 38.5582 23.7966 38.1155C24.4598 38.2969 25.4055 38.4174 26.1089 38.1561C27.0546 37.8744 28.7836 37.492 29.3266 38.6387V38.6387ZM35.1582 38.1152C35.6205 38.4774 36.0427 38.8796 36.2842 39.3826C34.5152 39.5031 32.5042 39.3421 30.6941 39.3826C30.5733 39.121 30.2514 38.8195 30.1511 38.5177C31.7395 37.0902 33.4289 38.8598 35.1582 38.1152V38.1152Z" fill="#E5E7EB"/>
<path fill-rule="evenodd" clip-rule="evenodd" d="M30.332 39.282C30.5527 39.9655 30.7542 40.8302 30.3121 41.4537C30.0103 41.6744 29.628 41.6144 29.2865 41.5342C28.7837 41.0314 29.045 40.2472 29.0654 39.6036C29.1456 39.342 29.3667 39.121 29.5883 38.96C29.9097 38.8999 30.2112 39.0204 30.332 39.282Z" fill="#E5E7EB"/>
</svg>
