<svg width="129" height="52" viewBox="0 0 129 52" fill="none" xmlns="http://www.w3.org/2000/svg">
<path fill-rule="evenodd" clip-rule="evenodd" d="M117.594 44.7595C116.028 43.9413 115.785 41.6281 115.821 36.0059L115.856 27.3879L112.887 27.3839L113.554 25.7868H115.856V21.7055L121.372 19.6649L121.371 25.6505L123.899 25.6552L123.231 27.4233L121.372 27.4206L121.363 42.3348C121.484 43.5365 121.889 44.2432 122.464 44.7589H117.594V44.7595ZM63.3933 7.90545C63.8147 9.05969 64.7679 10.2513 64.0899 11.5886C63.76 12.9445 62.4768 14.0447 61.1209 14.2638C59.7095 14.392 58.3535 14.1542 57.3081 13.2926C56.5567 9.37095 58.1518 5.74192 61.2484 3.57973L63.3933 7.90545Z" fill="#E5E7EB"/>
<path fill-rule="evenodd" clip-rule="evenodd" d="M68.8636 19.854C68.1575 22.2272 61.1479 20.6695 58.949 16.7753C61.8353 17.096 65.0882 14.5397 65.143 11.626L68.8636 19.854ZM71.7311 19.5467C72.0517 19.4044 72.699 19.0838 72.8586 18.3965L65.3174 2.04012C64.8137 1.97599 64.4463 1.9299 63.8051 2.38813L71.7311 19.5467V19.5467ZM75.1217 15.9958C78.3299 11.1391 75.6267 3.16697 68.7173 2.04947L75.1217 15.9958ZM74.4143 26.4534C75.4243 25.6051 77.2037 25.5851 78.354 26.1301C78.8396 26.3726 79.3038 26.6966 79.6064 27.12L77.3847 30.5761C77.1015 30.353 76.8991 30.2528 76.5358 30.0711C75.435 29.5962 74.2734 29.8741 73.6054 30.4745V40.5581C73.5914 42.3008 73.894 43.8912 74.7977 44.7195H69.7466C68.6966 43.9119 68.4341 42.6187 68.3325 41.4866L68.2918 28.0806C68.3372 26.9951 68.0593 26.5149 67.6252 25.9084L72.858 25.9291C73.2835 26.2317 73.3028 26.7573 73.5259 27.1621L74.4143 26.4534V26.4534ZM80.7994 29.7672C80.7586 28.494 81.0418 26.9691 80.2082 25.8676H85.063C85.3863 26.1101 85.5679 26.5149 85.6695 26.8983C85.932 27.2416 85.9119 27.7266 86.0322 28.1313L86.0729 42.417C86.2753 43.2653 86.5986 44.1237 87.2251 44.7903L82.0331 44.801C80.3358 43.1598 80.8915 40.4566 80.76 37.6685L80.7994 29.7672V29.7672ZM88.4782 29.9088C89.0026 28.4526 90.6398 27.7259 91.8321 26.9384C93.6496 26.2717 95.6508 24.6145 97.6908 25.9692C99.388 27.0793 100.883 28.3331 101.954 30.0497C102.217 30.7163 102.338 31.4638 102.521 32.1712C102.521 33.121 102.722 33.8277 102.702 34.7775C102.762 35.8082 102.762 36.7387 102.702 37.748C102.64 39.4646 101.833 41.0003 100.479 42.1926C98.4582 43.9914 95.9126 46.032 93.1653 44.6373C90.6999 43.4851 87.7902 41.202 87.9719 38.0713C87.8717 35.8483 87.7709 33.9292 88.0735 31.7664C88.195 31.1405 88.1336 30.4545 88.4782 29.9088V29.9088ZM93.528 40.0117C93.7705 40.9001 94.2354 41.9909 95.3061 42.1124C95.9327 42.1331 96.3983 41.6075 96.761 41.1626C97.8931 38.941 97.7315 36.5156 97.7315 33.99C97.3675 32.1117 97.8123 29.5454 95.7917 28.3932C95.0844 28.1307 94.5393 28.6163 94.0945 29.0598C93.3063 30.2521 93.2154 31.6154 93.1653 33.1317C92.9021 35.5571 93.1854 37.567 93.528 40.0117V40.0117ZM106.299 44.7596C104.732 43.9413 104.491 41.6282 104.526 36.0059L104.561 27.3879L101.591 27.3839L102.258 25.7868H104.561V21.7056L110.077 19.6649L110.075 25.6505L112.603 25.6552L111.936 27.4233L110.077 27.4206L110.067 42.3349C110.188 43.5365 110.592 44.2432 111.168 44.7589H106.299V44.7596V44.7596ZM55.8657 28.0799C55.833 26.9918 55.6333 26.5142 55.1991 25.9077L60.4319 25.9284C60.8567 26.231 60.8768 26.7567 61.0992 27.1615L61.9882 26.4528C62.9982 25.6044 64.7763 25.5844 65.9279 26.1295C66.4135 26.3719 66.8777 26.6959 67.1803 27.1194L64.9587 30.5754C64.6754 30.3523 64.4731 30.2521 64.1097 30.0704C63.0089 29.5955 61.8466 29.8734 61.1793 30.4739V40.5574C61.1646 42.3001 61.4679 43.8905 62.3723 44.7188H57.3212C56.2705 43.9112 55.9713 42.7069 55.9065 41.4859L55.8657 28.0799V28.0799ZM16.283 33.3849L14.3706 37.2958C13.0721 39.6036 11.2506 42.4357 8.45584 43.1391C7.37375 43.5172 6.41856 43.1745 5.37187 43.1023L2 48.621C2.25249 48.8909 2.60851 49.1193 2.95585 49.2523C8.88935 51.5146 11.278 49.0799 17.1213 35.8797L22.6393 47.6385H29.9882L26.5168 39.7024L28.482 35.6005L33.9098 47.4568L40.9428 47.5022L28.6356 20.4525L22.966 23.2699L27.4086 33.3648L25.4608 37.3318L17.319 19.7538L11.3454 22.797L16.283 33.3849V33.3849ZM38.8728 38.1528C39.0144 36.1916 40.0851 34.3534 41.904 33.3635C43.7021 32.252 45.8035 31.8071 47.6625 30.8379C47.9858 30.5754 48.3899 30.2521 48.4099 29.828C48.43 29.3023 48.1675 28.8975 47.7026 28.7165C44.8737 28.11 42.5299 29.8881 40.4692 31.6468C40.7317 30.3523 40.9334 28.9382 41.54 27.7266C41.8432 27.4033 42.0249 26.9584 42.429 26.7166C44.4296 25.726 46.9351 25.4435 49.1781 25.6044C51.017 25.7253 52.7143 27.0386 53.3402 28.7165C53.6634 29.5047 53.6434 30.3931 53.7035 31.202L53.7242 42.1532C53.7443 43.103 54.1885 43.9927 54.7542 44.7596H49.5207C48.8942 44.1931 48.5863 43.4864 48.4099 42.598C46.9451 43.8912 43.8885 45.8116 42.0656 44.5378C40.176 43.6881 38.4486 40.8393 38.8728 38.1528V38.1528ZM48.1468 34.3434C48.1067 33.5852 47.561 33.5058 47.1769 33.5058C45.9244 33.6868 44.8457 34.7361 44.2472 35.8082C43.7115 36.7687 43.5853 37.5756 43.5398 38.4146C43.5352 39.319 43.479 39.9903 43.8431 40.6783C44.0448 41.1218 44.4897 41.3242 44.9145 41.4451C45.7221 41.6068 46.4708 41.385 47.0967 40.9609C48.5716 40.1313 48.3084 38.474 48.3291 36.9999L48.1468 34.3434ZM126.283 42.214C126.545 42.4825 126.677 42.7984 126.677 43.1638C126.677 43.5392 126.545 43.8618 126.28 44.1303C126.016 44.3975 125.698 44.5311 125.325 44.5311C124.952 44.5311 124.632 44.3982 124.368 44.133C124.239 44.0073 124.137 43.8565 124.068 43.6898C124 43.5231 123.966 43.3441 123.969 43.1638C123.969 42.7971 124.099 42.4818 124.362 42.214C124.626 41.9401 124.948 41.8045 125.324 41.8045C125.698 41.8045 126.017 41.9401 126.283 42.214ZM126.485 42.0042C126.335 41.8493 126.155 41.7267 125.955 41.6442C125.756 41.5616 125.541 41.5207 125.326 41.524C124.894 41.524 124.518 41.6729 124.197 41.9688C123.857 42.2874 123.686 42.6849 123.686 43.1638C123.686 43.6254 123.843 44.0141 124.159 44.3301C124.477 44.6473 124.865 44.805 125.326 44.805C125.773 44.805 126.155 44.65 126.475 44.3421C126.634 44.1906 126.76 44.0076 126.845 43.8047C126.93 43.6018 126.971 43.3836 126.967 43.1638C126.967 42.7109 126.807 42.3248 126.485 42.0042V42.0042ZM125.529 43.0402C125.451 43.0887 125.36 43.112 125.268 43.107H125.083V42.58H125.199C125.318 42.58 125.409 42.592 125.476 42.6181C125.573 42.6562 125.622 42.725 125.622 42.8245C125.622 42.924 125.59 42.9955 125.529 43.0402V43.0402ZM125.083 43.4343H125.183L125.288 43.441C125.343 43.4419 125.398 43.4516 125.451 43.4697C125.481 43.4806 125.509 43.4982 125.532 43.5212C125.555 43.5442 125.573 43.572 125.583 43.6027C125.599 43.6421 125.608 43.7162 125.612 43.8258C125.618 43.9353 125.626 44.0188 125.642 44.0776H126.096L126.081 44.0268C126.069 43.9925 126.064 43.9563 126.065 43.9199V43.7569C126.065 43.5719 126.012 43.4363 125.905 43.3502C125.828 43.2961 125.739 43.2605 125.646 43.246C125.761 43.2366 125.87 43.1939 125.961 43.1231C126.047 43.0549 126.088 42.944 126.088 42.7917C126.088 42.5907 126.009 42.4457 125.847 42.3576C125.736 42.3011 125.614 42.269 125.489 42.2634C125.364 42.2609 125.238 42.26 125.113 42.2607C124.889 42.2594 124.72 42.2594 124.607 42.2594V44.0782H125.083V43.4343V43.4343Z" fill="#E5E7EB"/>
</svg>
