<svg width="212" height="52" viewBox="0 0 212 52" fill="none" xmlns="http://www.w3.org/2000/svg">
<g clip-path="url(#clip0_1540_725)">
<path d="M32.7076 18.3829C36.1814 18.4092 39.1078 19.6166 41.5177 21.9858C43.9563 24.3719 45.1589 27.2169 45.1326 30.576L45.0346 46.3744C45.0202 48.2584 43.4375 49.7766 41.4771 49.7766C39.5286 49.7622 37.9602 48.2321 37.9745 46.3481L38.0702 30.5497C38.0915 29.8473 37.9615 29.1485 37.6888 28.5008C37.4161 27.8531 37.0072 27.2717 36.4898 26.7961C35.4666 25.7681 34.1779 25.2517 32.6646 25.2517C31.9238 25.2332 31.1874 25.3695 30.5023 25.6519C29.8173 25.9343 29.1988 26.3566 28.6863 26.8918C27.6917 27.8959 27.2016 29.2754 27.1872 30.6716L27.1035 46.2382C27.0892 48.1508 25.4778 49.6953 23.503 49.6809C21.5282 49.6666 19.9311 48.1102 19.9455 46.1975L20.0411 30.5378C20.0677 29.1537 19.55 27.8145 18.5995 26.8081C17.5236 25.6988 16.2039 25.1584 14.6355 25.1441C13.9258 25.1265 13.2197 25.2504 12.5584 25.5086C11.8971 25.7667 11.2939 26.1541 10.7839 26.6479C9.74631 27.664 9.18686 28.9096 9.18686 30.3728L9.08883 46.1569C9.07449 48.0552 7.47743 49.5853 5.51697 49.5733C3.55651 49.559 1.98575 48.0145 2.0001 46.1186L2.09812 30.3871C2.10061 27.4493 3.20057 24.6184 5.18226 22.4497C7.7715 19.6572 10.9656 18.261 14.6785 18.2897C18.2217 18.3136 21.2485 19.5472 23.6704 22.0552C26.164 19.5616 29.162 18.3686 32.7076 18.3829V18.3829ZM77.3726 35.874L57.101 35.7497C57.2683 38.1883 58.0812 40.1249 59.5109 41.5737C60.9526 42.9986 62.803 43.7302 65.0576 43.7422C66.822 43.7565 68.2804 43.362 69.4423 42.5492C70.1285 42.0614 70.872 41.3442 71.6705 40.3544C72.1718 39.737 72.8721 39.3131 73.6515 39.1552C74.4309 38.9973 75.2409 39.1153 75.9429 39.4889L76.1533 39.5965C76.5721 39.8209 76.9349 40.1369 77.2145 40.5211C77.4941 40.9052 77.6834 41.3475 77.7682 41.815C77.853 42.2825 77.8312 42.7631 77.7043 43.221C77.5774 43.6789 77.3488 44.1022 77.0355 44.4594C76.8141 44.7193 76.5852 44.9728 76.3493 45.2197C75.3709 46.2541 74.2533 47.1473 73.0285 47.8735C71.8428 48.5678 70.5575 49.0758 69.2176 49.3797C67.8452 49.6905 66.3725 49.8531 64.7778 49.8387C60.2114 49.8124 56.5415 48.3636 53.7945 45.5042C51.0498 42.6304 49.6895 38.8243 49.7182 34.0953C49.7469 29.4093 51.1192 25.627 53.8232 22.7557C56.5559 19.9106 60.1421 18.5001 64.6105 18.5407C69.1195 18.5694 72.6795 19.9776 75.2711 22.782C77.8484 25.5601 79.1203 29.3806 79.0964 34.2722C79.0759 34.7117 78.8839 35.1256 78.5616 35.4251C78.2393 35.7246 77.8124 35.8858 77.3726 35.874V35.874ZM71.8259 30.2341C70.8577 26.5762 68.4908 24.7353 64.7205 24.7209C63.8981 24.7024 63.0788 24.8261 62.2986 25.0867C61.5518 25.3289 60.8511 25.6951 60.2258 26.1698C59.6089 26.6431 59.0782 27.2121 58.6287 27.8768C58.1668 28.5752 57.8213 29.3438 57.6054 30.1528L71.8235 30.2341H71.8259ZM111.116 35.874L90.8472 35.7497C91.0145 38.1883 91.8274 40.1249 93.2547 41.5737C94.6988 42.9986 96.5469 43.7302 98.8014 43.7422C100.568 43.7565 102.024 43.362 103.189 42.5492C103.875 42.0614 104.616 41.3442 105.414 40.3544C105.916 39.737 106.616 39.3131 107.395 39.1552C108.175 38.9973 108.985 39.1153 109.687 39.4889L109.897 39.5965C110.316 39.8207 110.679 40.1365 110.959 40.5206C111.239 40.9046 111.428 41.3469 111.513 41.8144C111.598 42.2819 111.577 42.7626 111.45 43.2206C111.323 43.6786 111.095 44.1021 110.782 44.4594C110.56 44.7194 110.33 44.9729 110.093 45.2197C109.115 46.2539 107.999 47.1471 106.775 47.8735C105.589 48.5678 104.304 49.0758 102.964 49.3797C101.591 49.6905 100.119 49.8531 98.5241 49.8387C93.9576 49.8124 90.2853 48.3636 87.5407 45.5042C84.7937 42.6304 83.4357 38.8243 83.4644 34.0953C83.4931 29.4093 84.8654 25.627 87.5694 22.7557C90.2997 19.9106 93.8859 18.5001 98.3543 18.5407C102.866 18.5694 106.423 19.9776 109.017 22.782C111.592 25.5601 112.866 29.3806 112.84 34.2722C112.82 34.7113 112.628 35.1248 112.306 35.4242C111.984 35.7237 111.558 35.8851 111.119 35.874H111.116ZM105.57 30.2341C104.601 26.5762 102.235 24.7353 98.4667 24.7209C97.6435 24.7021 96.8233 24.8259 96.0424 25.0867C94.5392 25.5757 93.2457 26.5591 92.3725 27.8768C91.9115 28.5753 91.5667 29.344 91.3516 30.1528L105.57 30.2341V30.2341ZM150.173 2.09196C152.176 2.1063 153.773 3.67706 153.759 5.616L153.611 21.1036C156.202 18.8802 159.054 18.3781 162.165 18.3925C165.273 18.4068 168.524 19.7457 170.626 21.9811C172.419 23.9176 173.287 27.0089 173.258 31.2359L173.146 46.3027C173.134 48.2393 171.508 49.7837 169.505 49.7694C167.501 49.7574 165.904 48.1843 165.918 46.2477L166.016 31.8455C166.031 29.4212 165.596 27.6592 164.725 26.5762C163.846 25.4764 162.416 24.9218 160.441 24.9218C157.919 24.9074 156.126 25.6533 155.09 27.1572C154.067 28.6873 153.548 31.3172 153.52 35.042L153.436 46.1927C153.424 48.1293 151.798 49.6761 149.795 49.6618C147.791 49.6498 146.194 48.0767 146.209 46.1401L146.517 5.58731C146.546 3.62207 148.169 2.07761 150.175 2.09196H150.173ZM177.581 34.2722C177.609 30.0859 179.178 26.5355 182.303 23.6235C185.411 20.7092 189.207 19.2603 193.649 19.301C198.118 19.3273 201.9 20.8311 204.996 23.8124C208.049 26.7794 209.563 30.4254 209.534 34.7193C209.505 39.0705 207.937 42.6854 204.814 45.6118C201.675 48.5118 197.838 49.9344 193.315 49.9081C188.815 49.8794 185.076 48.3636 182.049 45.3679C179.051 42.4153 177.555 38.7167 177.581 34.2722V34.2722ZM184.658 34.4348C184.641 37.3348 185.413 39.6228 187.01 41.3179C188.636 43.0393 190.792 43.9047 193.482 43.9191C196.184 43.9334 198.357 43.1062 199.98 41.4255C201.606 39.7447 202.433 37.5093 202.46 34.693C202.474 31.8718 201.69 29.6245 200.078 27.9318C198.453 26.2247 196.296 25.3425 193.606 25.3306C190.96 25.3162 188.815 26.1554 187.163 27.8505C185.511 29.5432 184.684 31.7379 184.655 34.4348H184.658ZM138.264 33.8203C140.432 35.4078 141.523 37.4783 141.563 39.9934V40.0986C141.563 43.1732 140.351 45.7122 138.089 47.4312C136.014 49.0091 133.133 49.8411 129.779 49.8411C126.212 49.8411 122.454 48.837 119.195 47.0271C118.792 46.812 118.439 46.5144 118.158 46.1539C117.878 45.7933 117.676 45.3777 117.567 44.9342C117.458 44.4907 117.443 44.0291 117.524 43.5795C117.604 43.1299 117.779 42.7022 118.035 42.3244C118.355 41.8594 118.783 41.4798 119.284 41.2189C119.784 40.9579 120.34 40.8237 120.904 40.8278C121.497 40.8278 122.076 40.9712 122.588 41.2581C125.079 42.6376 127.625 43.3668 129.942 43.3668C133.604 43.3668 133.994 41.5976 133.994 40.8278V40.7226C133.994 39.1733 131.881 38.4441 128.419 37.428C128.177 37.3492 127.948 37.2846 127.718 37.2201C125.416 36.5817 123.02 35.8119 121.16 34.485C118.951 32.8951 117.875 30.8103 117.875 28.1015V27.9963C117.875 22.4353 122.535 18.5407 129.2 18.5407C132.002 18.5407 135.058 19.2173 137.848 20.4677C138.709 20.8598 139.383 21.5746 139.679 22.4616C139.823 22.8965 139.873 23.3569 139.827 23.8126C139.78 24.2683 139.638 24.709 139.409 25.1058L139.395 25.1178C139.087 25.6402 138.648 26.0727 138.121 26.3723C137.594 26.6718 136.998 26.8279 136.392 26.8248C135.88 26.8248 135.395 26.722 134.938 26.514C132.77 25.5338 130.723 25.015 129.012 25.015C126.831 25.015 125.416 25.8996 125.416 27.2815V27.3843C125.416 28.9861 128.218 29.8468 131.18 30.7721L131.759 30.9538C134.035 31.6327 136.392 32.4647 138.264 33.8203Z" fill="#E5E7EB"/>
</g>
<defs>
<clipPath id="clip0_1540_725">
<rect width="208" height="48" fill="white" transform="translate(2 2)"/>
</clipPath>
</defs>
</svg>
