<svg width="108" height="28" viewBox="0 0 108 28" fill="none" xmlns="http://www.w3.org/2000/svg">
<path d="M25.9443 26.7543V17.4039C25.9443 15.4496 25.1382 14.4722 23.5259 14.4716C21.9137 14.471 21.1059 15.4485 21.1024 17.4039V26.7543H16.3391V17.4039C16.3391 15.4496 15.5453 14.4722 13.9578 14.4716C12.3427 14.4716 11.5366 15.449 11.5395 17.4039V26.7543H6.77527V16.852C6.77527 14.8119 7.48351 13.2679 8.89998 12.2199C10.1472 11.2842 11.8331 10.8164 13.9578 10.8164C16.1119 10.8164 17.6988 11.3689 18.7186 12.4739C19.5972 11.3689 21.1986 10.8164 23.5225 10.8164C25.6472 10.8164 27.3326 11.2842 28.5786 12.2199C29.9951 13.2673 30.7036 14.8113 30.7042 16.852V26.7543H25.9443Z" fill="#E5E7EB"/>
<path d="M84.2865 26.7118V0H89.0506V26.7118H84.2865Z" fill="#E5E7EB"/>
<path d="M78.2149 26.7118V25.1381C77.7893 25.7047 77.0664 26.1584 76.0461 26.4993C75.2127 26.7973 74.3357 26.9552 73.4507 26.9666C71.182 26.9666 69.3602 26.1866 67.9851 24.6268C66.6101 23.0669 65.9223 21.138 65.9218 18.84C65.9218 16.5728 66.592 14.6683 67.9428 13.1395C69.1391 11.7878 71.0824 10.8429 73.3228 10.8429C75.8466 10.8429 77.3201 11.793 78.2149 12.8839V0H82.8512V26.7118H78.2149ZM78.2149 17.8225C78.2149 16.9715 77.8118 16.1559 77.0057 15.3757C76.1995 14.5954 75.3704 14.2053 74.5182 14.2053C73.2998 14.2053 72.3359 14.7017 71.6265 15.6944C71.0018 16.5753 70.6897 17.653 70.6903 18.9272C70.6903 20.1756 71.0024 21.2391 71.6265 22.1177C72.3348 23.1398 73.2986 23.6502 74.5182 23.6491C75.2558 23.6491 76.057 23.3016 76.9219 22.6066C77.7867 21.9116 78.2186 21.1959 78.2174 20.4594L78.2149 17.8225Z" fill="#E5E7EB"/>
<path d="M56.9476 27.1369C54.5367 27.1369 52.5447 26.3714 50.9716 24.8403C49.3985 23.3093 48.6103 21.3383 48.6068 18.9274C48.6068 16.5188 49.3939 14.5481 50.9682 13.0153C52.5424 11.4826 54.5344 10.717 56.9442 10.7188C59.3539 10.7188 61.3531 11.4843 62.9417 13.0153C64.5304 14.5464 65.3244 16.5171 65.3238 18.9274C65.3238 21.3389 64.5298 23.3098 62.9417 24.8403C61.3536 26.3708 59.3556 27.1363 56.9476 27.1369ZM56.9476 14.5467C55.7995 14.5467 54.917 14.9814 54.3003 15.8509C53.6837 16.7203 53.3753 17.7533 53.3753 18.9499C53.3753 20.1464 53.6632 21.1578 54.239 21.984C54.8989 22.9249 55.8029 23.3948 56.9511 23.3936C58.0992 23.3925 59.0029 22.9226 59.6622 21.984C60.2645 21.1583 60.5657 20.1469 60.5657 18.9499C60.5657 17.7528 60.2778 16.7414 59.702 15.9157C59.0421 15.0024 58.124 14.5461 56.9476 14.5467Z" fill="#E5E7EB"/>
<path d="M39.722 27.1369C37.3117 27.1369 35.3194 26.3714 33.7451 24.8403C32.1709 23.3093 31.3841 21.3383 31.3846 18.9274C31.3846 16.5188 32.1715 14.5481 33.7451 13.0153C35.3188 11.4826 37.3111 10.717 39.722 10.7188C42.1306 10.7188 44.1298 11.4843 45.7196 13.0153C47.3094 14.5464 48.1031 16.5171 48.1008 18.9274C48.1008 21.3389 47.3071 23.3098 45.7196 24.8403C44.1321 26.3708 42.1329 27.1363 39.722 27.1369ZM39.722 14.5467C38.5738 14.5467 37.6911 14.9814 37.0739 15.8509C36.4566 16.7203 36.1483 17.7533 36.1488 18.9499C36.1488 20.1464 36.4367 21.1578 37.0125 21.984C37.6724 22.9249 38.5767 23.3948 39.7254 23.3936C40.8742 23.3925 41.7779 22.9226 42.4366 21.984C43.0378 21.1583 43.3383 20.1469 43.3383 18.9499C43.3383 17.7528 43.0504 16.7414 42.4746 15.9157C41.8159 15.0024 40.8984 14.5461 39.722 14.5467Z" fill="#E5E7EB"/>
<path d="M94.6927 20.3739C94.7946 21.5079 96.2689 23.947 98.6925 23.947C101.051 23.947 102.167 22.585 102.222 22.0331L107.241 21.9899C106.694 23.6646 104.469 27.2222 98.6044 27.2222C96.1653 27.2222 93.9335 26.463 92.3304 24.9463C90.7274 23.4297 89.9276 21.4526 89.9276 19.0127C89.9276 16.4889 90.7285 14.4828 92.3304 12.9944C93.9323 11.5059 96.0098 10.7617 98.5629 10.7617C101.341 10.7617 103.51 11.683 105.07 13.5256C106.517 15.2259 107.24 17.5084 107.24 20.373L94.6927 20.3739ZM102.477 17.4373C102.279 16.4155 101.853 15.5812 101.202 14.9274C100.463 14.2191 99.6126 13.8647 98.6493 13.8641C97.656 13.8641 96.8263 14.2044 96.1601 14.885C95.4939 15.5656 95.0476 16.4164 94.8214 17.4373H102.477Z" fill="#E5E7EB"/>
<path d="M16.0229 10.0973L20.7508 6.64245L20.6904 6.4317C12.1587 7.47765 8.27894 8.21871 0.930542 12.4785L0.998775 12.672L1.58264 12.678C1.52909 13.2662 1.43581 14.7198 1.555 16.9058C0.739663 19.2655 1.53427 20.8685 2.28051 22.6123C2.39884 20.7986 2.38675 18.812 1.82966 16.835C1.71306 14.6637 1.80893 13.236 1.86161 12.6806L6.73291 12.7272C6.71981 13.6812 6.76799 14.6349 6.87714 15.5827C11.2302 17.1123 15.6083 15.5775 17.9326 11.8065C17.2874 11.0836 16.0229 10.0973 16.0229 10.0973Z" fill="#E5E7EB"/>
</svg>
