<svg width="94" height="32" viewBox="0 0 94 32" fill="none" xmlns="http://www.w3.org/2000/svg">
<path d="M40.3168 6.76797H44.0052L52.5191 17.9606V6.76797H56.4658V24.9453H53.0653L44.2621 13.3897V24.9453H40.3168V6.76797Z" fill="#E5E7EB"/>
<path d="M65.4473 17.7778L58.4635 6.76797H63.1385L67.4751 14.0656L71.8884 6.76797H76.4302L69.4473 17.7008V24.9453H65.4473V17.7778Z" fill="#E5E7EB"/>
<path d="M78.1442 17.1555V6.76841H82.1442V17.0523C82.1442 20.0114 83.6201 21.5439 86.0631 21.5439C88.502 21.5439 89.9844 20.0624 89.9844 17.1828V6.76841H93.9812V17.0254C93.9812 22.5291 90.8908 25.2305 86.0089 25.2305C81.1302 25.2305 78.1442 22.505 78.1442 17.1555Z" fill="#E5E7EB"/>
<path d="M14.1197 16.6903C10.84 14.7333 11.1682 11.9384 12.5275 9.88421C12.5566 9.84118 12.5659 9.76948 12.5566 9.68616C12.4997 9.19763 11.9668 7.9616 11.7441 7.62548C11.6872 7.54026 11.6386 7.54726 11.633 7.60782C11.615 8.16664 10.9789 9.56717 10.0052 11.1801C8.97052 12.8967 8.96821 16.6222 14.1052 16.7676C14.1544 16.7689 14.1682 16.7185 14.1197 16.6903ZM14.9969 16.5458C13.0363 12.357 16.9581 9.65144 17.5969 9.06477C17.6872 8.9824 17.6645 8.90643 17.6663 8.81244C17.6663 7.49357 16.9108 5.35976 16.6632 5.05457C16.6285 5.0074 16.5988 5.02779 16.5844 5.07544C16.2497 6.37547 14.465 8.313 14.1052 8.73706C11.0775 12.3371 11.7705 14.5292 14.9316 16.5967C14.9719 16.6222 15.0205 16.5931 14.9969 16.5458ZM15.6359 16.3676C16.5622 11.9245 20.1784 11.8162 20.502 10.9732C21.0066 9.65831 20.083 7.32504 19.8469 7.04912C19.8242 7.0195 19.7914 7.03846 19.7797 7.06299C19.2895 8.13938 18.4946 9.16432 17.9145 9.6352C17.0936 10.2963 13.9524 12.6246 15.5589 16.3708C15.5774 16.4172 15.6247 16.4056 15.6359 16.3676ZM16.2788 16.7532C22.134 16.9653 22.5483 11.6296 22.5714 9.63283C22.5742 9.51715 22.5159 9.50696 22.4881 9.58791C22.3145 10.0046 21.5534 11.4926 19.4423 12.3973C17.557 13.206 16.4233 15.0412 16.2256 16.6903C16.2168 16.731 16.2516 16.7532 16.2788 16.7532ZM17.6109 18.7532V17.4098H12.9928V18.7532H17.6109ZM14.9108 28.2593C14.9483 28.4838 15.4339 28.594 15.5427 28.2593L16.6613 19.395H13.9441L14.9108 28.2593ZM32.0168 32H0.0186768V0H32.0168V32Z" fill="#E5E7EB"/>
</svg>
