<svg width="165" height="52" viewBox="0 0 165 52" fill="none" xmlns="http://www.w3.org/2000/svg">
<g clip-path="url(#clip0_1540_722)">
<path d="M131.713 42.2262H34.2583L42.0313 49.9992L131.713 42.2262ZM147.356 37.2709V21.7248C147.356 18.8099 149.396 16.3809 152.311 16.3809C155.226 16.3809 157.266 18.8099 157.266 21.7248V37.2709H163.291V21.7248C163.291 15.3121 158.918 10.1625 152.505 10.1625C149.591 10.1625 147.356 11.8142 147.356 11.8142V10.7454H141.332V37.1737H147.356V37.2709ZM127.437 10.0653C120.442 10.0653 115.486 16.1866 115.486 23.9596C115.486 32.1213 121.705 37.8539 128.02 37.8539C131.227 37.8539 135.211 36.7851 138.611 31.9269L133.267 28.8177C129.186 34.8418 122.288 31.8298 121.511 25.7085H138.806C140.36 16.3809 134.239 10.0653 127.437 10.0653V10.0653ZM132.684 20.5589H121.899C123.162 14.4376 131.518 14.049 132.684 20.5589Z" fill="#E5E7EB"/>
<path d="M113.543 30.9553C112.96 31.344 112.28 31.6355 111.502 31.6355C110.531 31.6355 108.685 30.8581 108.685 28.4291V17.061H113.834V10.7454H108.685V4.13837H102.661V10.7454H99.4543V17.061H102.661V28.4291C102.661 34.356 107.13 37.8539 111.6 37.8539C113.251 37.8539 115.583 37.2709 117.429 36.2021L113.543 30.9553ZM91.3898 10.7454V26.2915C91.3898 29.2064 89.3494 31.6355 86.4345 31.6355C83.5196 31.6355 81.4792 29.2064 81.4792 26.2915V10.7454H75.4551V26.2915C75.4551 32.7042 79.8274 37.8539 86.2402 37.8539C89.155 37.8539 91.3898 36.2021 91.3898 36.2021V37.1737H97.4139V10.7454H91.3898Z" fill="#E5E7EB"/>
<path d="M64.184 23.1823L74.4833 10.7454H66.1273L58.84 19.9759V2.00078H52.7188V37.2709H58.84V26.3887L67.779 37.2709H76.135L64.184 23.1823ZM43.294 10.7454V11.9114C41.4479 10.7454 39.8933 10.0653 37.6585 10.0653C30.8571 10.0653 25.6104 16.2837 25.6104 23.9596C25.6104 31.6354 30.76 37.8539 37.6585 37.8539C39.8933 37.8539 41.5451 37.1737 43.294 36.0078V37.1737H49.3181V10.7454H43.294ZM37.5614 31.5383C34.1607 31.5383 31.7316 28.2347 31.7316 24.0567C31.7316 19.8787 34.1607 16.5752 37.5614 16.5752C40.9621 16.5752 43.294 19.8787 43.294 24.0567C43.3912 28.2347 40.9621 31.5383 37.5614 31.5383Z" fill="#E5E7EB"/>
<path d="M8.31559 37.2709V26.9716H12.6879L20.3638 37.1737H28.234L18.9063 24.8341C21.8212 22.7936 23.6673 19.3929 23.6673 15.5064C23.6673 9.19083 18.5177 4.13837 12.2993 4.13837H2V37.1737H8.31559V37.2709ZM8.31559 10.454H12.3964C15.2141 10.454 17.5461 12.7859 17.5461 15.6036C17.5461 18.4213 15.2141 20.7532 12.3964 20.7532H8.31559V10.454Z" fill="#E5E7EB"/>
</g>
<defs>
<clipPath id="clip0_1540_722">
<rect width="161.29" height="48" fill="white" transform="translate(2 2)"/>
</clipPath>
</defs>
</svg>
