<svg width="110" height="32" viewBox="0 0 110 32" fill="none" xmlns="http://www.w3.org/2000/svg">
<path d="M13.1293 4.66062C10.6509 3.56045 9.17284 3.13329 7.70536 3.13329C6.16512 3.13329 5.17878 3.68484 5.17878 4.5374C5.17878 7.10974 13.9045 6.38568 13.9045 12.3354C13.9045 15.616 11.152 17.5223 7.32748 17.5223C4.32798 17.5223 2.85052 16.7461 1.14893 15.8677V12.187C3.60333 13.8135 5.10543 14.3873 6.9989 14.3873C8.64006 14.3873 9.52489 13.8134 9.52489 12.8119C9.52489 10.0113 0.799805 11.0369 0.799805 4.91057C0.799805 1.95625 3.3522 0 7.32748 0C9.24618 0 10.9771 0.403103 13.1293 1.32842V4.66062ZM25.3462 16.7402C23.8917 17.2683 22.6618 17.5194 21.4349 17.5194C17.371 17.5194 14.7435 15.1524 14.7435 11.5515C14.7435 8.01628 17.4725 5.51846 21.2835 5.51846C22.4611 5.51846 23.9662 5.82005 25.1696 6.26833V8.97446C24.2167 8.46867 23.1136 8.19114 22.2106 8.19114C20.0296 8.19114 18.6267 9.50196 18.6267 11.5251C18.6267 13.5764 20.0056 14.9265 22.0844 14.9265C22.9616 14.9265 23.7414 14.7259 25.3468 14.125L25.3462 16.7402ZM57.0311 10.2254C57.1802 8.61888 58.1131 7.69063 59.5419 7.69063C60.9466 7.69063 61.8983 8.64529 62.0485 10.2254H57.0311ZM59.2908 5.52256C55.725 5.52256 53.1867 8.04093 53.1867 11.5849C53.1867 15.1554 55.8259 17.5194 59.8945 17.5194C60.7958 17.5194 62.9756 17.5194 65.0521 15.9827V13.7231C63.3511 14.9347 62.2263 15.3519 60.7741 15.3519C58.4822 15.3519 57.0804 14.1661 56.9537 12.1418H65.2563C65.4294 7.91653 62.6552 5.52256 59.2908 5.52256ZM66.6616 17.3088H70.2919V5.73556H66.6616V17.3088ZM80.3952 14.1456C79.6389 14.8262 79.0105 15.099 78.2354 15.099C76.5256 15.099 75.4436 13.692 75.4436 11.5838C75.4436 9.27312 76.5256 7.94118 78.3557 7.94118C79.0105 7.94118 79.8654 8.24277 80.3952 8.62064V14.1456ZM80.3952 0.21358V6.2431C79.4148 5.769 78.4366 5.51846 77.3799 5.51846C74.0682 5.51846 71.777 7.96641 71.777 11.5081C71.777 14.9735 74.0682 17.5223 77.1751 17.5223C78.4073 17.5223 79.3596 17.1996 80.3952 16.3735V17.3052H84.0249V0.21358H80.3952ZM89.399 10.2254C89.5498 8.61888 90.4781 7.69063 91.9045 7.69063C93.311 7.69063 94.2727 8.64529 94.4229 10.2254H89.399ZM91.6563 5.52256C88.0912 5.52256 85.557 8.04093 85.557 11.5849C85.557 15.1554 88.1974 17.5194 92.2607 17.5194C93.1608 17.5194 95.3453 17.5194 97.4265 15.9827V13.7231C95.7237 14.9347 94.596 15.3519 93.1373 15.3519C90.8577 15.3519 89.4501 14.1661 89.3233 12.1418H97.623C97.7955 7.91653 95.0196 5.52256 91.6563 5.52256Z" fill="#E5E7EB"/>
<path d="M103.058 9.04902H103.112C104.189 6.64038 105.396 5.51088 106.796 5.51088C107.521 5.51088 108.147 5.78738 109.2 6.5663L108.201 9.77514C107.248 9.17371 106.621 8.92214 106.046 8.92214C104.714 8.92214 103.861 10.1778 103.058 12.3004V17.293H99.4232V5.72285H103.058V9.04902ZM70.4623 0.86669C70.8034 1.7659 70.1895 3.02009 69.0959 3.66553C67.998 4.31023 66.8377 4.10559 66.4995 3.20639C66.1548 2.30571 66.7658 1.05005 67.8623 0.408285C68.9573 -0.240082 70.1184 -0.0347176 70.4623 0.86669Z" fill="#E5E7EB"/>
<path d="M38.4234 9.94329C38.4234 6.80707 36.2917 5.52324 34.1882 5.52324C32.7577 5.52324 31.5824 6.12643 30.5303 7.45778H30.4805V0.214844H26.8467V17.2766H30.4811V9.94329C31.3313 8.71344 32.0571 8.18771 32.9091 8.18771C34.0392 8.18771 34.7902 8.99157 34.7902 10.7202V14.7858C36.0089 14.1591 37.2481 13.7748 38.4234 13.6322V9.94329ZM47.5381 5.51913C46.0583 5.51913 44.9282 6.06951 43.7711 7.39265V5.73623H40.1391V13.6011C41.3971 13.7267 43.0025 14.3041 43.7711 15.2576V9.85234C44.7264 8.41948 45.4041 7.94186 46.3077 7.94186C47.3368 7.94186 48.1184 8.62132 48.1184 10.2531V17.2795H51.7522V9.95209C51.7522 6.5442 49.3447 5.51913 47.5381 5.51913ZM53.7589 20.6029H49.5366V23.6024H53.6087V24.8898H49.5366V27.9843H53.8845V29.2699H48.1208V19.3185H53.7583L53.7589 20.6029ZM57.2067 29.2758H58.4999V19.3156H57.2067V29.2758ZM64.902 23.6969C65.8185 23.6969 66.3871 24.3288 66.4299 25.321H63.1365C63.3148 24.2848 63.911 23.6969 64.902 23.6969ZM63.113 26.1847H67.7196C67.7196 23.7556 66.6107 22.5838 64.8727 22.5838C63.0696 22.5838 61.818 23.9163 61.818 25.9043C61.818 27.7209 62.9487 29.3984 64.9848 29.3984C66.0943 29.3984 66.8119 29.152 67.6064 28.6245V27.3659C66.8389 27.8681 66.0943 28.158 65.311 28.158C64.0583 28.158 63.3148 27.4862 63.113 26.1842V26.1847ZM76.1637 24.4321C75.4202 23.9228 74.9238 23.7732 74.3576 23.7732C73.1735 23.7732 72.3539 24.6815 72.3539 26.0111C72.3539 27.3659 73.2264 28.1821 74.5741 28.1821C75.1286 28.1821 75.6567 28.0383 76.3086 27.7467V29.0217C75.8726 29.2271 75.0424 29.3984 74.3576 29.3984C72.399 29.3984 71.0401 28.0518 71.0401 26.1272C71.0401 23.9551 72.2817 22.5838 74.269 22.5838C75.0277 22.5838 75.5382 22.7604 76.1643 23.0356L76.1637 24.4321ZM82.0559 22.7094H84.1312V23.8747H82.0559V27.2427C82.0559 28.0137 82.6139 28.2366 82.9912 28.2366C83.4588 28.2366 83.9417 28.0729 84.4651 27.7496V28.9625C84.011 29.2124 83.3145 29.3984 82.8873 29.3984C81.4791 29.3984 80.7674 28.5241 80.7674 27.3401V23.8747H79.6267V23.7303L82.0559 21.3528V22.7094ZM89.0764 22.7094V24.2279H89.1029C89.7624 23.0661 90.389 22.5838 90.9992 22.5838C91.5262 22.5838 92.019 22.8308 92.5612 23.3437L91.8759 24.4831C91.4822 24.0941 90.9728 23.826 90.666 23.826C89.7753 23.826 89.0759 24.7308 89.0759 25.852V29.2758H87.785V22.7094H89.0764ZM105.813 24.4321C105.065 23.9228 104.569 23.7732 103.999 23.7732C102.818 23.7732 102.004 24.6815 102.004 26.0111C102.004 27.3659 102.879 28.1821 104.218 28.1821C104.773 28.1821 105.298 28.0383 105.959 27.7467V29.0217C105.514 29.2271 104.682 29.3984 103.999 29.3984C102.044 29.3984 100.679 28.0518 100.679 26.1272C100.679 23.9551 101.926 22.5838 103.913 22.5838C104.674 22.5838 105.179 22.7604 105.812 23.0356L105.813 24.4321ZM95.989 29.2758H97.2823V22.71H95.989V29.2758Z" fill="#E5E7EB"/>
<path d="M97.3256 20.3495C97.4517 20.6663 97.2309 21.1145 96.8422 21.3426C96.4506 21.5714 96.0361 21.4981 95.9181 21.1805C95.8 20.86 96.0141 20.4155 96.4073 20.1867C96.7953 19.9549 97.2075 20.029 97.3256 20.3495ZM39.4441 20.8805C39.216 20.8805 39.1199 20.9179 39.0268 21.0221C38.9901 21.0624 38.9754 21.1035 38.9622 21.1856L37.8027 25.5834C37.5305 27.1258 35.6361 28.666 33.1665 28.666H29.7333L30.3288 26.4063H32.5343C32.7595 26.4063 32.9355 26.3227 33.0829 26.1584C33.1372 26.0946 33.2076 25.9948 33.2172 25.8922L34.1325 22.0496C34.4024 20.5064 36.0329 18.8019 38.5016 18.8019H42.0178L41.5682 20.8805H39.4441ZM40.2362 23.5605L40.6286 22.1376H44.2005C44.6413 20.0744 44.2944 18.1631 43.0424 16.9111C40.5084 14.377 35.207 15.2381 31.2574 19.0168C30.6405 19.6036 30.1198 20.238 29.6453 20.8864H31.7957L31.2955 22.3122H28.7262C28.4805 22.7618 28.2502 23.2077 28.0742 23.6603H31.121L30.6332 25.0861H27.6393C27.1273 27.2644 27.4537 29.2961 28.7416 30.5862C31.2442 33.088 36.5294 32.2086 40.4768 28.4306C41.1677 27.7734 41.7383 27.0642 42.2539 26.3359H39.4911L39.9121 24.913H43.1421C43.3791 24.4605 43.5969 24.0131 43.767 23.5605H40.2362Z" fill="#E5E7EB"/>
</svg>
