<svg width="165" height="52" viewBox="0 0 165 52" fill="none" xmlns="http://www.w3.org/2000/svg">
<g clip-path="url(#clip0_1540_723)">
<path d="M26.994 2.00002C13.7428 2.00002 3 12.7451 3 25.9996C3 39.2555 13.7428 50 26.994 50C40.2458 50 50.988 39.2555 50.988 25.9996C50.988 12.746 40.2464 2.00116 26.9937 2.00116L26.994 2.00002V2.00002ZM37.9975 36.6143C37.5666 37.3213 36.6457 37.5428 35.9411 37.1121C30.3067 33.6676 23.2148 32.8895 14.8627 34.7979C14.0579 34.9824 13.2557 34.4778 13.0723 33.673C12.8881 32.868 13.3903 32.0655 14.1972 31.8821C23.3371 29.792 31.1772 30.6916 37.5015 34.5571C38.2064 34.9899 38.4298 35.9098 37.9972 36.6148L37.9975 36.6143V36.6143ZM40.9343 30.0803C40.3917 30.961 39.2404 31.2373 38.3611 30.6965C31.913 26.7318 22.0805 25.5834 14.4519 27.8997C13.4625 28.1986 12.4176 27.6409 12.1173 26.653C11.8193 25.6634 12.3772 24.6202 13.3648 24.3193C22.0788 21.6747 32.9115 22.9557 40.318 27.5082C41.1976 28.0499 41.4756 29.2019 40.934 30.0806L40.9343 30.0803ZM41.1865 23.2755C33.4521 18.6812 20.6946 18.2588 13.3112 20.5002C12.1256 20.8599 10.8718 20.1904 10.5125 19.0045C10.1532 17.818 10.822 16.5648 12.0084 16.2042C20.484 13.6307 34.5736 14.1279 43.4769 19.4146C44.5433 20.0477 44.8932 21.4253 44.2611 22.4906C43.6307 23.5573 42.2497 23.9089 41.1867 23.2755H41.1865V23.2755ZM68.2798 24.1559C64.137 23.1678 63.3995 22.4743 63.3995 21.0169C63.3995 19.6402 64.6954 18.7136 66.6225 18.7136C68.4906 18.7136 70.343 19.4172 72.285 20.8656C72.3437 20.9095 72.4174 20.9269 72.4899 20.9155C72.5624 20.9046 72.6265 20.8648 72.6689 20.8049L74.6918 17.9527C74.7749 17.8352 74.7522 17.6733 74.6402 17.5836C72.3289 15.7285 69.7261 14.8266 66.6839 14.8266C62.2107 14.8266 59.0862 17.5116 59.0862 21.3534C59.0862 25.4731 61.7815 26.9319 66.4392 28.0579C70.4035 28.9712 71.0725 29.7364 71.0725 31.1043C71.0725 32.6201 69.7195 33.5624 67.5423 33.5624C65.1241 33.5624 63.1517 32.7476 60.9452 30.8363C60.8904 30.789 60.8154 30.7676 60.746 30.7716C60.673 30.7776 60.6062 30.8114 60.5598 30.8673L58.2917 33.5673C58.1966 33.6793 58.2086 33.8467 58.3187 33.9436C60.8859 36.236 64.0433 37.4468 67.4506 37.4468C72.2707 37.4468 75.3855 34.8125 75.3855 30.7352C75.3941 27.2933 73.334 25.3874 68.2884 24.1597L68.2798 24.1559V24.1559ZM86.2904 20.0692C84.2011 20.0692 82.4874 20.8923 81.0743 22.5788V20.6805C81.0743 20.5306 80.9528 20.4085 80.8032 20.4085H77.0937C76.9438 20.4085 76.8226 20.5306 76.8226 20.6805V41.774C76.8226 41.9239 76.9438 42.046 77.0937 42.046H80.8032C80.9528 42.046 81.0743 41.9239 81.0743 41.774V35.1157C82.4877 36.7022 84.2017 37.4775 86.2904 37.4775C90.1724 37.4775 94.1024 34.4884 94.1024 28.7743C94.1081 23.0589 90.177 20.0689 86.2947 20.0689L86.2904 20.0692ZM89.7888 28.7743C89.7888 31.6841 87.9969 33.7146 85.4311 33.7146C82.8946 33.7146 80.9812 31.5918 80.9812 28.7743C80.9812 25.9572 82.8946 23.8341 85.4311 23.8341C87.9553 23.8338 89.7891 25.911 89.7891 28.774L89.7888 28.7743V28.7743ZM104.175 20.0692C99.1755 20.0692 95.2587 23.9198 95.2587 28.8365C95.2587 33.6997 99.1485 37.5099 104.114 37.5099C109.131 37.5099 113.06 33.6721 113.06 28.7743C113.06 23.8934 109.157 20.0697 104.175 20.0697L104.175 20.0692V20.0692ZM104.175 33.7435C101.516 33.7435 99.511 31.6064 99.511 28.7729C99.511 25.9273 101.446 23.8625 104.114 23.8625C106.79 23.8625 108.808 25.9996 108.808 28.8351C108.808 31.6801 106.86 33.7435 104.175 33.7435H104.175V33.7435ZM123.736 20.4085H119.654V16.234C119.654 16.0844 119.533 15.9624 119.383 15.9624H115.674C115.524 15.9624 115.402 16.0844 115.402 16.234V20.4085H113.618C113.469 20.4085 113.348 20.5306 113.348 20.6805V23.8694C113.348 24.019 113.469 24.1413 113.618 24.1413H115.402V32.3925C115.402 35.727 117.061 37.4176 120.333 37.4176C121.664 37.4176 122.768 37.1427 123.808 36.5527C123.893 36.5054 123.945 36.4142 123.945 36.3174V33.2807C123.945 33.1869 123.897 33.0984 123.816 33.0494C123.736 32.9987 123.635 32.9961 123.552 33.0371C122.838 33.3967 122.147 33.5627 121.375 33.5627C120.185 33.5627 119.654 33.0222 119.654 31.8108V24.1428H123.736C123.885 24.1428 124.006 24.0207 124.006 23.8708V20.6822C124.012 20.5323 123.891 20.4103 123.74 20.4103L123.736 20.4085V20.4085ZM137.958 20.4248V19.9121C137.958 18.4038 138.537 17.7312 139.833 17.7312C140.607 17.7312 141.228 17.8848 141.924 18.1169C142.009 18.1439 142.099 18.1304 142.168 18.0791C142.24 18.0278 142.28 17.9455 142.28 17.8584V14.7317C142.28 14.6122 142.204 14.5065 142.088 14.4712C141.353 14.2525 140.413 14.0281 139.005 14.0281C135.579 14.0281 133.768 15.958 133.768 19.6072V20.3924H131.986C131.836 20.3924 131.713 20.5145 131.713 20.6641V23.8693C131.713 24.0189 131.836 24.1413 131.986 24.1413H133.768V36.8685C133.768 37.0183 133.889 37.1404 134.038 37.1404H137.748C137.898 37.1404 138.02 37.0183 138.02 36.8685V24.1422H141.483L146.789 36.8662C146.186 38.2031 145.594 38.4691 144.786 38.4691C144.132 38.4691 143.444 38.2739 142.74 37.8887C142.674 37.8523 142.596 37.8463 142.524 37.8684C142.453 37.8933 142.394 37.946 142.364 38.0148L141.106 40.7738C141.047 40.9042 141.098 41.0573 141.223 41.1249C142.536 41.8359 143.721 42.1394 145.185 42.1394C147.924 42.1394 149.438 40.8632 150.773 37.4299L157.208 20.7962C157.241 20.7126 157.231 20.618 157.18 20.5438C157.129 20.4701 157.046 20.4257 156.956 20.4257H153.095C152.979 20.4257 152.876 20.4993 152.838 20.608L148.882 31.9105L144.549 20.6005C144.509 20.4953 144.408 20.4257 144.295 20.4257H137.958L137.958 20.4248V20.4248ZM129.712 20.4085H126.003C125.853 20.4085 125.731 20.5306 125.731 20.6805V36.8685C125.731 37.0183 125.853 37.1404 126.003 37.1404H129.712C129.862 37.1404 129.984 37.0183 129.984 36.8685V20.6816C129.984 20.6458 129.977 20.6104 129.964 20.5774C129.95 20.5443 129.93 20.5143 129.905 20.489C129.879 20.4637 129.849 20.4437 129.816 20.4301C129.783 20.4165 129.748 20.4095 129.712 20.4096L129.712 20.4085ZM127.879 13.0377C126.409 13.0377 125.217 14.2276 125.217 15.6976C125.217 17.1683 126.409 18.3597 127.879 18.3597C129.348 18.3597 130.539 17.1683 130.539 15.6976C130.539 14.2279 129.347 13.0377 127.88 13.0377H127.879V13.0377ZM160.376 25.6133C158.908 25.6133 157.765 24.4339 157.765 23.0018C157.765 21.5698 158.923 20.377 160.39 20.377C161.858 20.377 163 21.556 163 22.9869C163 24.419 161.842 25.6133 160.376 25.6133H160.376V25.6133ZM160.39 20.6366C159.053 20.6366 158.041 21.6999 158.041 23.0018C158.041 24.3033 159.046 25.3522 160.377 25.3522C161.714 25.3522 162.726 24.2898 162.726 22.9869C162.726 21.6855 161.721 20.6366 160.391 20.6366H160.39V20.6366ZM160.969 23.2555L161.707 24.2895H161.085L160.42 23.3409H159.848V24.2895H159.327V21.5486H160.549C161.186 21.5486 161.604 21.8744 161.604 22.4229C161.607 22.8723 161.347 23.1469 160.971 23.2555H160.969V23.2555ZM160.528 22.0189H159.848V22.8858H160.528C160.867 22.8858 161.069 22.7199 161.069 22.4519C161.069 22.1699 160.866 22.0189 160.528 22.0189H160.528V22.0189Z" fill="#E5E7EB"/>
</g>
<defs>
<clipPath id="clip0_1540_723">
<rect width="160" height="48" fill="white" transform="translate(3 2)"/>
</clipPath>
</defs>
</svg>
