<svg width="110" height="29" viewBox="0 0 110 29" fill="none" xmlns="http://www.w3.org/2000/svg">
<path d="M10.137 4.38855H27.3333L27.5782 3.29612C27.936 1.60097 26.6552 0 24.9224 0H8.2158C6.04978 0 4.18512 1.50679 3.71424 3.61631L0.0602604 20.4924C-0.297604 22.1876 0.983172 23.7886 2.71599 23.7886H3.73308L7.46241 6.53573C7.74493 5.29262 8.85619 4.38855 10.137 4.38855Z" fill="#00CDFA"/>
<path d="M28.3504 4.38855H27.3333L23.604 21.6414C23.3403 22.8845 22.229 23.7886 20.9482 23.7886H3.75189L3.50704 24.881C3.14917 26.5761 4.42995 28.1771 6.16277 28.1771H22.8694C25.0354 28.1771 26.9001 26.6703 27.3709 24.5608L31.0249 7.70351C31.3828 5.98952 30.0832 4.38855 28.3504 4.38855Z" fill="url(#paint0_linear_54_3541)"/>
<path d="M23.604 21.6414L27.3333 4.38855H10.137C8.85623 4.38855 7.74497 5.27379 7.48128 6.53574L3.75195 23.7886H20.9483C22.2291 23.7886 23.3215 22.8845 23.604 21.6414Z" fill="#3A00FF"/>
<path d="M9.34745 17.2058L8.10303 10.7362H10.0545L10.6555 14.7735L12.6282 10.7362H13.9433L14.714 14.7735L16.5241 10.7362H18.4756L15.315 17.2058H13.6817L12.9039 13.4159L11.002 17.2058H9.34745Z" fill="white"/>
<path d="M17.7896 16.1593L18.8077 14.9785C19.2673 15.5442 19.8471 15.8341 20.5612 15.8341C21.0208 15.8341 21.4238 15.6432 21.4875 15.325C21.5087 15.1341 21.3814 14.9715 21.0844 14.8301C21.0137 14.7947 20.8582 14.7381 20.6107 14.6533C20.1228 14.4624 19.9107 14.3917 19.4865 14.123C18.8926 13.7553 18.6097 13.2463 18.7087 12.3695C18.8996 11.1746 19.9956 10.5099 21.3814 10.5099C22.3289 10.5099 23.1066 10.821 23.7359 11.4362L22.7319 12.6099C22.3147 12.221 21.8339 12.0301 21.2895 12.0301C20.8511 12.0301 20.5895 12.1574 20.5329 12.4331C20.4834 12.6594 20.6036 12.8503 20.8865 12.9776C20.9784 13.0271 21.1693 13.1048 21.4521 13.2109C21.7349 13.317 21.9753 13.4089 22.1733 13.522C22.8097 13.7907 23.5591 14.42 23.3329 15.3816C23.2268 16.0108 22.9086 16.5058 22.3713 16.8593C21.841 17.2129 21.1976 17.3896 20.4764 17.3896C19.3168 17.3825 18.4188 16.9795 17.7896 16.1593Z" fill="white"/>
<path d="M41.1581 20.5678H39.3311L35.7524 9.75653H38.1256L40.3105 17.0268L42.7591 9.75653H44.134L46.6391 17.0268L48.7862 9.75653H51.1595L47.5996 20.5678H45.7726L43.4748 13.4859L41.1581 20.5678Z" fill="white"/>
<path d="M53.1939 20.5678H51.1221V12.6006H53.1186V13.6742C53.5895 12.8078 54.324 12.3934 55.3034 12.3934C55.6236 12.3934 55.9438 12.4499 56.264 12.5629L56.0945 14.5406C55.7366 14.4276 55.4353 14.3711 55.1528 14.3711C54.55 14.3711 54.0792 14.5783 53.7213 14.9738C53.3823 15.3694 53.1939 15.9721 53.1939 16.782V20.5678Z" fill="white"/>
<path d="M59.0512 10.4346C59.0512 10.7924 58.9382 11.0938 58.6934 11.3387C58.4485 11.5835 58.1471 11.6965 57.7893 11.6965C57.4314 11.6965 57.1301 11.5835 56.8852 11.3387C56.6404 11.0938 56.5273 10.7924 56.5273 10.4346C56.5273 10.0767 56.6404 9.77535 56.8852 9.54933C57.1301 9.30448 57.4314 9.19147 57.7893 9.19147C58.1471 9.19147 58.4485 9.30448 58.6934 9.54933C58.9382 9.77535 59.0512 10.0767 59.0512 10.4346ZM58.8064 12.6006V20.5678H56.7345V12.6006H58.8064Z" fill="white"/>
<path d="M65.2103 18.4771L65.8319 20.0969C65.1727 20.5301 64.3816 20.7562 63.4775 20.7562C62.5546 20.7562 61.8766 20.4925 61.4057 19.9651C60.9348 19.4377 60.7088 18.6466 60.7088 17.6107V14.3146H59.4092V12.5818H60.7276V9.75653H62.7806V12.5818H65.4175V14.3146H62.7806V17.4789C62.7806 18.4206 63.1573 18.8915 63.9107 18.8915C64.2874 18.8915 64.7395 18.7596 65.2103 18.4771Z" fill="white"/>
<path d="M73.837 16.4053C73.837 16.6501 73.8181 16.9515 73.7616 17.3094H67.7721C68.0735 18.4395 68.8457 19.0045 70.0888 19.0045C71.0117 19.0045 71.8781 18.7408 72.6692 18.1946L73.4791 19.6449C72.462 20.3795 71.3131 20.7373 69.9946 20.7373C68.6009 20.7373 67.5273 20.3418 66.7739 19.5319C66.0393 18.7408 65.6626 17.7426 65.6626 16.5748C65.6626 15.3505 66.0393 14.3523 66.8115 13.58C67.5838 12.789 68.582 12.3934 69.8063 12.3934C70.9741 12.3934 71.9158 12.7513 72.6692 13.467C73.4603 14.2016 73.837 15.181 73.837 16.4053ZM69.844 14.1074C69.3354 14.1074 68.8834 14.2581 68.5255 14.5595C68.1677 14.8608 67.9228 15.2563 67.791 15.7837H71.8405C71.7463 15.2752 71.5203 14.8608 71.1624 14.5595C70.8045 14.2581 70.3713 14.1074 69.844 14.1074Z" fill="white"/>
<path d="M77.3025 20.775C75.9087 20.775 74.8163 20.2664 74.0063 19.2305L75.0988 17.9309C75.3813 18.2699 75.7203 18.5336 76.1159 18.7408C76.5114 18.948 76.9069 19.0422 77.3025 19.0422C77.6227 19.0422 77.8675 18.9668 78.0935 18.8162C78.3007 18.6655 78.4137 18.4771 78.4137 18.2511C78.4137 17.9686 78.2254 17.7426 77.8487 17.573C77.7357 17.5165 77.4155 17.4035 76.9069 17.2152C76.4549 17.0457 76.1159 16.9138 75.8898 16.782C74.9669 16.3488 74.5149 15.6519 74.5149 14.7101C74.5149 14.0132 74.7786 13.4482 75.3248 12.9773C75.8522 12.5253 76.5867 12.2993 77.4908 12.2993C78.6209 12.2993 79.5627 12.676 80.2784 13.4482L79.2613 14.7855C78.6962 14.2581 78.0935 13.9944 77.4343 13.9944C77.1706 13.9944 76.9446 14.0509 76.7751 14.1828C76.6056 14.3146 76.5114 14.4653 76.5114 14.6536C76.5114 14.9927 76.7374 15.2375 77.2083 15.3882C78.2442 15.7837 78.8846 16.0286 79.1295 16.1604C80.0335 16.6313 80.4667 17.3094 80.4667 18.1758C80.4667 18.9292 80.1654 19.5319 79.5815 20.0216C79.0164 20.5301 78.2631 20.775 77.3025 20.775Z" fill="white"/>
<path d="M80.8433 16.5748C80.8433 15.3882 81.2388 14.4088 82.0487 13.5988C82.8586 12.7889 83.8757 12.3746 85.1188 12.3746C86.3619 12.3746 87.379 12.7889 88.1889 13.5988C88.98 14.3899 89.3943 15.3882 89.3943 16.5748C89.3943 17.7614 88.9988 18.7596 88.1889 19.5507C87.379 20.3606 86.3619 20.7561 85.1188 20.7561C83.8757 20.7561 82.8586 20.3606 82.0487 19.5507C81.2388 18.7596 80.8433 17.7614 80.8433 16.5748ZM83.5367 18.1946C83.951 18.6278 84.4784 18.8538 85.1188 18.8538C85.7404 18.8538 86.2489 18.6278 86.6821 18.1946C87.1153 17.7425 87.3225 17.1963 87.3225 16.5748C87.3225 15.9532 87.1153 15.407 86.6821 14.9738C86.2489 14.5406 85.7404 14.3146 85.1188 14.3146C84.4784 14.3146 83.951 14.5406 83.5367 14.9738C83.1223 15.407 82.9151 15.9344 82.9151 16.5748C82.9151 17.2152 83.1223 17.7614 83.5367 18.1946Z" fill="white"/>
<path d="M92.314 20.5678H90.2422V12.6006H92.2575V13.7119C92.4647 13.3163 92.8037 12.9962 93.2558 12.7513C93.7078 12.5064 94.1975 12.3934 94.7626 12.3934C95.629 12.3934 96.3636 12.676 96.9663 13.2598C97.569 13.8437 97.8704 14.6536 97.8704 15.7084V20.5866H95.7985V16.2734C95.7985 15.6519 95.6478 15.1622 95.3465 14.8231C95.0451 14.4841 94.6307 14.2958 94.1222 14.2958C93.576 14.2958 93.1428 14.4841 92.8038 14.8608C92.4647 15.2375 92.2952 15.7272 92.2952 16.3111V20.5678H92.314Z" fill="white"/>
<path d="M101.411 10.4346C101.411 10.7924 101.298 11.0938 101.053 11.3387C100.808 11.5835 100.507 11.6965 100.149 11.6965C99.7913 11.6965 99.4899 11.5835 99.2451 11.3387C99.0002 11.0938 98.8872 10.7924 98.8872 10.4346C98.8872 10.0767 99.0002 9.77535 99.2451 9.54933C99.4899 9.30448 99.7913 9.19147 100.149 9.19147C100.507 9.19147 100.808 9.30448 101.053 9.54933C101.298 9.77535 101.411 10.0767 101.411 10.4346ZM101.166 12.6006V20.5678H99.0944V12.6006H101.166Z" fill="white"/>
<path d="M106.233 20.7561C105.009 20.7561 103.992 20.3606 103.182 19.5884C102.391 18.8161 101.995 17.8179 101.995 16.5936C101.995 15.3693 102.391 14.3711 103.201 13.5988C104.01 12.8078 105.046 12.4122 106.289 12.4122C107.099 12.4122 107.853 12.6006 108.512 12.9961C109.171 13.3917 109.68 13.9379 110 14.6348L108.343 15.5388C107.853 14.7289 107.175 14.3334 106.308 14.3334C105.649 14.3334 105.103 14.5594 104.689 14.9926C104.255 15.4258 104.048 15.9532 104.048 16.5936C104.048 17.2528 104.255 17.799 104.67 18.2322C105.103 18.6654 105.63 18.8726 106.271 18.8726C106.685 18.8726 107.081 18.7596 107.476 18.5336C107.853 18.3076 108.135 18.0251 108.305 17.6672L109.981 18.6466C109.642 19.287 109.134 19.7955 108.474 20.1911C107.796 20.5489 107.043 20.7561 106.233 20.7561Z" fill="white"/>
<defs>
<linearGradient id="paint0_linear_54_3541" x1="3.44641" y1="16.2855" x2="31.0776" y2="16.2855" gradientUnits="userSpaceOnUse">
<stop stop-color="#FFB3FF"/>
<stop offset="0.5335" stop-color="#FF76DF"/>
<stop offset="1" stop-color="#C239C6"/>
</linearGradient>
</defs>
</svg>
